<svg width="84" height="33" viewBox="0 0 84 33" fill="none" xmlns="http://www.w3.org/2000/svg">
<path d="M83.4066 22.4066C83.6311 22.182 83.6311 21.818 83.4066 21.5934L79.7473 17.9341C79.5228 17.7096 79.1587 17.7096 78.9341 17.9341C78.7096 18.1587 78.7096 18.5228 78.9341 18.7473L82.1868 22L78.9341 25.2527C78.7096 25.4772 78.7096 25.8413 78.9341 26.0659C79.1587 26.2904 79.5228 26.2904 79.7473 26.0659L83.4066 22.4066ZM49 22.575L83 22.575L83 21.425L49 21.425L49 22.575Z" fill="#C780FF"/>
<circle cx="23" cy="14" r="14" fill="#00D1FF" fill-opacity="0.22"/>
<path d="M6.41406 17.0859H7.82031C8.04688 17.0859 8.24219 17.0078 8.40625 16.8516C8.57031 16.6875 8.65234 16.4922 8.65234 16.2656C8.65234 16.0391 8.57031 15.8477 8.40625 15.6914C8.24219 15.5352 8.04688 15.457 7.82031 15.457H6.41406C6.1875 15.457 5.99219 15.5352 5.82812 15.6914C5.67188 15.8477 5.59375 16.0391 5.59375 16.2656C5.59375 16.4844 5.67188 16.6758 5.82812 16.8398C5.99219 17.0039 6.1875 17.0859 6.41406 17.0859ZM6.41406 20.9648H7.82031C8.04688 20.9648 8.24219 20.8906 8.40625 20.7422C8.57031 20.5859 8.65234 20.3945 8.65234 20.168C8.65234 19.9414 8.57031 19.75 8.40625 19.5938C8.24219 19.4375 8.04688 19.3594 7.82031 19.3594H6.41406C6.1875 19.3594 5.99219 19.4375 5.82812 19.5938C5.67188 19.75 5.59375 19.9414 5.59375 20.168C5.59375 20.3945 5.67188 20.5859 5.82812 20.7422C5.99219 20.8906 6.1875 20.9648 6.41406 20.9648ZM10.9375 16.8516H23.2422C23.4062 16.8516 23.543 16.7969 23.6523 16.6875C23.7617 16.5781 23.8164 16.4375 23.8164 16.2656C23.8164 16.1094 23.7578 15.9766 23.6406 15.8672C23.5312 15.75 23.3984 15.6914 23.2422 15.6914H10.9375C10.7734 15.6914 10.6367 15.75 10.5273 15.8672C10.418 15.9766 10.3633 16.1094 10.3633 16.2656C10.3633 16.4375 10.418 16.5781 10.5273 16.6875C10.6367 16.7969 10.7734 16.8516 10.9375 16.8516ZM10.9375 20.7539H23.2422C23.4062 20.7539 23.543 20.6992 23.6523 20.5898C23.7617 20.4727 23.8164 20.332 23.8164 20.168C23.8164 20.0039 23.7617 19.8672 23.6523 19.7578C23.543 19.6406 23.4062 19.582 23.2422 19.582H10.9375C10.7812 19.582 10.6445 19.6367 10.5273 19.7461C10.418 19.8555 10.3633 19.9961 10.3633 20.168C10.3633 20.332 10.418 20.4727 10.5273 20.5898C10.6367 20.6992 10.7734 20.7539 10.9375 20.7539ZM4.43359 32.1445H24.9766C26.125 32.1445 26.9883 31.8555 27.5664 31.2773C28.1445 30.707 28.4336 29.8594 28.4336 28.7344V14.3555C28.4336 13.2383 28.1445 12.3906 27.5664 11.8125C26.9883 11.2266 26.125 10.9336 24.9766 10.9336H4.43359C3.29297 10.9336 2.43359 11.2227 1.85547 11.8008C1.27734 12.3711 0.988281 13.2227 0.988281 14.3555V28.7344C0.988281 29.8594 1.27734 30.707 1.85547 31.2773C2.43359 31.8555 3.29297 32.1445 4.43359 32.1445ZM4.46875 30.7031C3.80469 30.7031 3.29688 30.5312 2.94531 30.1875C2.60156 29.8438 2.42969 29.332 2.42969 28.6523V14.4375C2.42969 13.7578 2.60156 13.2461 2.94531 12.9023C3.29688 12.5508 3.80469 12.375 4.46875 12.375H24.9531C25.6016 12.375 26.1016 12.5508 26.4531 12.9023C26.8047 13.2461 26.9805 13.7578 26.9805 14.4375V28.6523C26.9805 29.332 26.8047 29.8438 26.4531 30.1875C26.1016 30.5312 25.6016 30.7031 24.9531 30.7031H4.46875Z" fill="#C780FF"/>
</svg>
