<svg width="769" height="71" viewBox="0 0 769 71" fill="none" xmlns="http://www.w3.org/2000/svg">
<path d="M21 36C30.665 36 38.5 28.165 38.5 18.5C38.5 8.83502 30.665 1 21 1C11.335 1 3.5 8.83502 3.5 18.5C3.5 28.165 11.335 36 21 36Z" fill="#F2892E"/>
<path d="M28.0998 16.1111C28.3992 14.1523 26.8764 13.0991 24.7959 12.3963L25.471 9.74221L23.8233 9.34036L23.1654 11.9244C22.7325 11.8178 22.2881 11.7188 21.8447 11.6197L22.5074 9.01888L20.8598 8.61609L20.1847 11.2693C19.8262 11.1889 19.4734 11.1104 19.132 11.0263L19.1339 11.0179L16.8607 10.4618L16.4221 12.187C16.4221 12.187 17.6455 12.4617 17.6197 12.4786C18.2872 12.6421 18.4073 13.0748 18.3873 13.4187L17.6188 16.442C17.6646 16.4532 17.7237 16.47 17.7904 16.4952L17.6159 16.4532L16.5385 20.6885C16.4565 20.8866 16.2495 21.1848 15.7823 21.0717C15.7995 21.095 14.5847 20.7792 14.5847 20.7792L13.7666 22.6277L15.912 23.152C16.3106 23.2501 16.7015 23.3529 17.0858 23.4492L16.404 26.1332L18.0507 26.535L18.7258 23.8809C19.1759 23.9996 19.6126 24.1099 20.0398 24.2146L19.3666 26.8574L21.0142 27.2593L21.696 24.5809C24.507 25.1024 26.6199 24.8921 27.5096 22.4006C28.2266 20.3951 27.4743 19.2372 25.9954 18.483C27.0729 18.24 27.8833 17.5457 28.0998 16.1111ZM24.3334 21.2866C23.8252 23.2931 20.3782 22.2081 19.2607 21.9361L20.1666 18.3802C21.2841 18.654 24.8664 19.1951 24.3334 21.2866ZM24.8435 16.0822C24.3792 17.9073 21.511 16.9793 20.5813 16.7522L21.4014 13.528C22.331 13.7551 25.3279 14.1785 24.8435 16.0822Z" fill="white"/>
<path d="M0.945 58V51.7H3.771C4.497 51.7 5.055 51.847 5.445 52.141C5.835 52.429 6.03 52.825 6.03 53.329C6.03 53.671 5.952 53.959 5.796 54.193C5.646 54.427 5.442 54.607 5.184 54.733C4.926 54.859 4.647 54.922 4.347 54.922L4.509 54.652C4.869 54.652 5.187 54.715 5.463 54.841C5.739 54.967 5.958 55.153 6.12 55.399C6.282 55.639 6.363 55.939 6.363 56.299C6.363 56.839 6.159 57.259 5.751 57.559C5.349 57.853 4.749 58 3.951 58H0.945ZM1.845 57.271H3.915C4.413 57.271 4.794 57.187 5.058 57.019C5.322 56.851 5.454 56.587 5.454 56.227C5.454 55.861 5.322 55.594 5.058 55.426C4.794 55.258 4.413 55.174 3.915 55.174H1.764V54.445H3.69C4.146 54.445 4.5 54.361 4.752 54.193C5.004 54.025 5.13 53.773 5.13 53.437C5.13 53.101 5.004 52.849 4.752 52.681C4.5 52.513 4.146 52.429 3.69 52.429H1.845V57.271ZM8.25652 58V51.7H9.15652V58H8.25652ZM12.7937 58V52.483H10.6337V51.7H15.8447V52.483H13.6847V58H12.7937ZM20.054 58.072C19.574 58.072 19.13 57.994 18.722 57.838C18.32 57.676 17.969 57.451 17.669 57.163C17.375 56.869 17.144 56.527 16.976 56.137C16.808 55.747 16.724 55.318 16.724 54.85C16.724 54.382 16.808 53.953 16.976 53.563C17.144 53.173 17.378 52.834 17.678 52.546C17.978 52.252 18.329 52.027 18.731 51.871C19.139 51.709 19.583 51.628 20.063 51.628C20.549 51.628 20.996 51.712 21.404 51.88C21.818 52.042 22.169 52.285 22.457 52.609L21.872 53.176C21.632 52.924 21.362 52.738 21.062 52.618C20.762 52.492 20.441 52.429 20.099 52.429C19.745 52.429 19.415 52.489 19.109 52.609C18.809 52.729 18.548 52.897 18.326 53.113C18.104 53.329 17.93 53.587 17.804 53.887C17.684 54.181 17.624 54.502 17.624 54.85C17.624 55.198 17.684 55.522 17.804 55.822C17.93 56.116 18.104 56.371 18.326 56.587C18.548 56.803 18.809 56.971 19.109 57.091C19.415 57.211 19.745 57.271 20.099 57.271C20.441 57.271 20.762 57.211 21.062 57.091C21.362 56.965 21.632 56.773 21.872 56.515L22.457 57.082C22.169 57.406 21.818 57.652 21.404 57.82C20.996 57.988 20.546 58.072 20.054 58.072ZM26.9531 58.072C26.4731 58.072 26.0261 57.991 25.6121 57.829C25.2041 57.667 24.8501 57.442 24.5501 57.154C24.2501 56.86 24.0161 56.518 23.8481 56.128C23.6801 55.738 23.5961 55.312 23.5961 54.85C23.5961 54.388 23.6801 53.962 23.8481 53.572C24.0161 53.182 24.2501 52.843 24.5501 52.555C24.8501 52.261 25.2041 52.033 25.6121 51.871C26.0201 51.709 26.4671 51.628 26.9531 51.628C27.4331 51.628 27.8741 51.709 28.2761 51.871C28.6841 52.027 29.0381 52.252 29.3381 52.546C29.6441 52.834 29.8781 53.173 30.0401 53.563C30.2081 53.953 30.2921 54.382 30.2921 54.85C30.2921 55.318 30.2081 55.747 30.0401 56.137C29.8781 56.527 29.6441 56.869 29.3381 57.163C29.0381 57.451 28.6841 57.676 28.2761 57.838C27.8741 57.994 27.4331 58.072 26.9531 58.072ZM26.9531 57.271C27.3011 57.271 27.6221 57.211 27.9161 57.091C28.2161 56.971 28.4741 56.803 28.6901 56.587C28.9121 56.365 29.0831 56.107 29.2031 55.813C29.3291 55.519 29.3921 55.198 29.3921 54.85C29.3921 54.502 29.3291 54.181 29.2031 53.887C29.0831 53.593 28.9121 53.338 28.6901 53.122C28.4741 52.9 28.2161 52.729 27.9161 52.609C27.6221 52.489 27.3011 52.429 26.9531 52.429C26.5991 52.429 26.2721 52.489 25.9721 52.609C25.6781 52.729 25.4201 52.9 25.1981 53.122C24.9761 53.338 24.8021 53.593 24.6761 53.887C24.5561 54.181 24.4961 54.502 24.4961 54.85C24.4961 55.198 24.5561 55.519 24.6761 55.813C24.8021 56.107 24.9761 56.365 25.1981 56.587C25.4201 56.803 25.6781 56.971 25.9721 57.091C26.2721 57.211 26.5991 57.271 26.9531 57.271ZM32.1677 58V51.7H33.0677V58H32.1677ZM35.4538 58V51.7H36.1918L40.3588 56.875H39.9718V51.7H40.8718V58H40.1338L35.9668 52.825H36.3538V58H35.4538Z" fill="white"/>
<path d="M104.5 36C114.165 36 122 28.165 122 18.5C122 8.83502 114.165 1 104.5 1C94.835 1 87 8.83502 87 18.5C87 28.165 94.835 36 104.5 36Z" fill="#627EEA"/>
<path d="M104.487 7.72258V15.2749L110.891 18.1271L104.487 7.72258Z" fill="white" fill-opacity="0.6"/>
<path d="M104.487 7.72258L98.0833 18.1267L104.487 15.2749V7.72258Z" fill="white"/>
<path d="M104.487 23.0207V28.1521L110.896 19.3154L104.487 23.0207Z" fill="white" fill-opacity="0.6"/>
<path d="M104.487 28.1521V23.0207L98.0833 19.3154L104.487 28.1521Z" fill="white"/>
<path d="M104.487 21.8331L110.891 18.1271L104.487 15.2749V21.8331Z" fill="white" fill-opacity="0.2"/>
<path d="M98.0833 18.1267L104.487 21.8331V15.2749L98.0833 18.1267Z" fill="white" fill-opacity="0.6"/>
<path d="M77.764 54.418H81.004V55.183H77.764V54.418ZM77.845 57.217H81.517V58H76.945V51.7H81.391V52.483H77.845V57.217ZM84.7253 58V52.483H82.5653V51.7H87.7763V52.483H85.6163V58H84.7253ZM93.7745 51.7H94.6745V58H93.7745V51.7ZM90.1565 58H89.2565V51.7H90.1565V58ZM93.8555 55.192H90.0665V54.409H93.8555V55.192ZM97.8792 54.418H101.119V55.183H97.8792V54.418ZM97.9602 57.217H101.632V58H97.0602V51.7H101.506V52.483H97.9602V57.217ZM103.59 58V51.7H106.047C106.599 51.7 107.07 51.787 107.46 51.961C107.85 52.135 108.15 52.387 108.36 52.717C108.57 53.047 108.675 53.44 108.675 53.896C108.675 54.352 108.57 54.745 108.36 55.075C108.15 55.399 107.85 55.648 107.46 55.822C107.07 55.996 106.599 56.083 106.047 56.083H104.085L104.49 55.669V58H103.59ZM107.802 58L106.2 55.714H107.163L108.783 58H107.802ZM104.49 55.759L104.085 55.318H106.02C106.596 55.318 107.031 55.195 107.325 54.949C107.625 54.697 107.775 54.346 107.775 53.896C107.775 53.446 107.625 53.098 107.325 52.852C107.031 52.606 106.596 52.483 106.02 52.483H104.085L104.49 52.033V55.759ZM111.448 54.418H114.688V55.183H111.448V54.418ZM111.529 57.217H115.201V58H110.629V51.7H115.075V52.483H111.529V57.217ZM119.768 58.072C118.94 58.072 118.289 57.835 117.815 57.361C117.341 56.887 117.104 56.194 117.104 55.282V51.7H118.004V55.246C118.004 55.948 118.157 56.461 118.463 56.785C118.775 57.109 119.213 57.271 119.777 57.271C120.347 57.271 120.785 57.109 121.091 56.785C121.403 56.461 121.559 55.948 121.559 55.246V51.7H122.432V55.282C122.432 56.194 122.195 56.887 121.721 57.361C121.253 57.835 120.602 58.072 119.768 58.072ZM124.777 58V51.7H125.515L128.341 56.461H127.945L130.735 51.7H131.473L131.482 58H130.618L130.609 53.059H130.816L128.332 57.235H127.918L125.416 53.059H125.641V58H124.777Z" fill="white"/>
<path d="M184.819 35.4375C194.484 35.4375 202.319 27.6024 202.319 17.9375C202.319 8.27247 194.484 0.437454 184.819 0.437454C175.154 0.437454 167.319 8.27247 167.319 17.9375C167.319 27.6024 175.154 35.4375 184.819 35.4375Z" fill="white"/>
<path d="M189.202 19.0352L192.354 17.2489C192.354 17.2489 191.264 16.5133 190.187 17.1307C189.11 17.748 189.202 19.0352 189.202 19.0352Z" fill="#006E3C"/>
<path d="M183.854 15.7125V8.61969C183.854 8.61969 181.556 9.76241 181.556 12.1924C181.556 14.6223 183.854 15.7125 183.854 15.7125Z" fill="#006E3C"/>
<path d="M183.854 8.61969C183.854 8.61969 186.153 9.76241 186.153 12.1924C186.153 14.6223 183.854 15.7125 183.854 15.7125V8.61969Z" fill="#00B43C"/>
<path d="M192.357 17.2478C192.357 17.2478 192.422 18.5613 191.345 19.1655C190.268 19.7828 189.204 19.0341 189.204 19.0341L192.357 17.2478Z" fill="#00B43C"/>
<path d="M192.51 16.9589C192.458 16.9327 191.131 16.2234 190.001 16.8801C189.095 17.4055 188.924 18.4432 188.885 18.8766L188.465 19.1131C188.255 18.916 187.979 18.7847 187.663 18.7847C187.348 18.7847 187.072 18.9029 186.862 19.1131L184.971 18.0097C184.997 17.9178 185.01 17.8258 185.01 17.7339C185.01 17.2085 184.656 16.7619 184.183 16.6306V15.9476C184.734 15.5929 186.494 14.2926 186.494 12.2304C186.494 9.83984 184.13 8.3556 184.025 8.28992L183.854 8.18486L183.684 8.28992C183.578 8.3556 181.214 9.83984 181.214 12.2304C181.214 14.2926 182.974 15.5798 183.526 15.9476V16.6306C183.04 16.7619 182.698 17.2085 182.698 17.7339C182.698 17.8258 182.712 17.9178 182.738 18.0097L180.833 19.1131C180.623 18.916 180.347 18.7847 180.032 18.7847C179.402 18.7847 178.876 19.2969 178.876 19.9406C178.876 20.4659 179.231 20.9125 179.704 21.0439V23.3294C179.231 23.4738 178.876 23.9073 178.876 24.4327C178.876 25.0631 179.388 25.5886 180.032 25.5886C180.374 25.5886 180.676 25.4441 180.886 25.2076L182.738 26.2716C182.712 26.3635 182.698 26.4555 182.698 26.5474C182.698 27.1779 183.211 27.6901 183.854 27.6901C184.485 27.6901 185.01 27.1779 185.01 26.5474C185.01 26.4555 184.997 26.3635 184.971 26.2716L186.823 25.2076C187.033 25.4441 187.335 25.5886 187.677 25.5886C188.307 25.5886 188.832 25.0763 188.832 24.4327C188.832 23.9073 188.478 23.4607 188.005 23.3294V21.0439C188.478 20.8994 188.832 20.4659 188.832 19.9406C188.832 19.8486 188.819 19.7567 188.806 19.6779L189.226 19.4414C189.463 19.5596 189.949 19.7435 190.487 19.7435C190.816 19.7435 191.17 19.6779 191.512 19.4808C192.628 18.8372 192.694 17.3267 192.694 17.2742V17.0771L192.51 16.9589ZM187.992 20.3346C187.9 20.4003 187.795 20.4397 187.677 20.4397C187.611 20.4397 187.558 20.4265 187.493 20.4003C187.44 20.3871 187.401 20.3609 187.361 20.3215C187.256 20.2427 187.191 20.1245 187.164 19.9931C187.164 19.9668 187.164 19.9406 187.164 19.9143C187.164 19.888 187.164 19.8749 187.164 19.8486C187.191 19.6647 187.309 19.5071 187.48 19.4414C187.532 19.4151 187.598 19.402 187.663 19.402C187.729 19.402 187.808 19.4151 187.86 19.4414C188.044 19.5202 188.176 19.7041 188.176 19.9143C188.176 19.9406 188.176 19.9668 188.163 19.9931C188.149 20.1507 188.084 20.2558 187.992 20.3346ZM188.176 24.4327C188.176 24.7216 187.939 24.9449 187.663 24.9449C187.572 24.9449 187.466 24.9187 187.401 24.8661C187.256 24.7742 187.151 24.6166 187.151 24.4327V24.4196C187.151 24.367 187.164 24.3145 187.177 24.2619C187.204 24.17 187.269 24.0912 187.348 24.0255C187.414 23.973 187.493 23.9335 187.572 23.9204C187.598 23.9204 187.624 23.9073 187.663 23.9073C187.782 23.9073 187.9 23.9467 187.979 24.0124C188.11 24.1174 188.176 24.2619 188.176 24.4327ZM187.348 23.3294C187.191 23.3688 187.046 23.4476 186.928 23.5526L184.984 22.423C184.997 22.3442 185.01 22.2786 185.01 22.1998C185.01 22.0947 184.997 21.9765 184.958 21.8845L186.875 20.768C187.007 20.8994 187.164 20.9913 187.348 21.0439V23.3294ZM183.854 27.0596C183.592 27.0596 183.381 26.8758 183.342 26.6262C183.342 26.5999 183.342 26.5737 183.342 26.5474C183.342 26.3372 183.473 26.1533 183.657 26.0745C183.723 26.0483 183.789 26.0351 183.854 26.0351C183.92 26.0351 183.986 26.0483 184.051 26.0745C184.235 26.1533 184.367 26.3372 184.367 26.5474C184.367 26.5737 184.367 26.5999 184.367 26.6262C184.327 26.8626 184.104 27.0596 183.854 27.0596ZM182.725 22.423L180.781 23.5526C180.663 23.4476 180.518 23.3688 180.36 23.3294V21.0439C180.544 20.9913 180.702 20.8994 180.833 20.768L182.751 21.8714C182.725 21.9765 182.698 22.0815 182.698 22.1998C182.698 22.2786 182.712 22.3574 182.725 22.423ZM180.557 24.4327C180.557 24.6166 180.466 24.7742 180.308 24.8661C180.229 24.9187 180.137 24.9449 180.045 24.9449C179.756 24.9449 179.533 24.7085 179.533 24.4327C179.533 24.2751 179.612 24.1174 179.73 24.0255C179.822 23.9598 179.927 23.9204 180.045 23.9204C180.071 23.9204 180.111 23.9204 180.137 23.9335C180.229 23.9467 180.295 23.9861 180.36 24.0386C180.439 24.0912 180.492 24.1831 180.531 24.2751C180.544 24.3276 180.557 24.3801 180.557 24.4327C180.557 24.4196 180.557 24.4196 180.557 24.4327ZM179.52 19.9406C179.52 19.6516 179.756 19.4283 180.032 19.4283C180.098 19.4283 180.163 19.4414 180.216 19.4677C180.387 19.5334 180.505 19.691 180.531 19.8749C180.531 19.9012 180.531 19.9274 180.531 19.9537C180.531 19.98 180.531 20.0062 180.531 20.0325C180.518 20.1639 180.439 20.2821 180.334 20.3609C180.295 20.3871 180.255 20.4134 180.203 20.4397C180.15 20.4659 180.085 20.4791 180.019 20.4791C179.901 20.4791 179.783 20.4397 179.704 20.374C179.599 20.2427 179.52 20.0982 179.52 19.9406ZM183.539 17.3267C183.631 17.261 183.736 17.2216 183.854 17.2216C183.973 17.2216 184.091 17.261 184.17 17.3267C184.275 17.4055 184.34 17.5237 184.353 17.6551C184.353 17.6814 184.353 17.7076 184.353 17.7339C184.353 17.8915 184.275 18.0491 184.156 18.1411C184.117 18.1673 184.078 18.1936 184.025 18.2199C183.973 18.2461 183.907 18.2593 183.841 18.2593C183.776 18.2593 183.71 18.2461 183.657 18.2199C183.605 18.2067 183.565 18.1805 183.526 18.1411C183.408 18.0491 183.329 17.9047 183.329 17.7339C183.329 17.7076 183.329 17.6814 183.329 17.6551C183.368 17.5237 183.434 17.4055 183.539 17.3267ZM184.367 22.2129C184.367 22.3705 184.288 22.5019 184.17 22.5938C184.143 22.6069 184.117 22.6332 184.091 22.6463C184.012 22.6857 183.933 22.712 183.841 22.712C183.749 22.712 183.67 22.6857 183.605 22.6463C183.578 22.6332 183.552 22.6201 183.526 22.5938C183.408 22.5019 183.329 22.3574 183.329 22.1998V22.1866C183.329 22.1341 183.329 22.0947 183.342 22.0553C183.368 21.9502 183.434 21.8582 183.513 21.7794C183.565 21.74 183.631 21.7006 183.71 21.6875C183.749 21.6743 183.789 21.6743 183.841 21.6743C183.894 21.6743 183.933 21.6743 183.973 21.6875C184.038 21.7006 184.104 21.74 184.156 21.7794C184.235 21.8451 184.301 21.9371 184.327 22.0421C184.34 22.0815 184.34 22.1341 184.34 22.1866C184.367 22.1998 184.367 22.2129 184.367 22.2129ZM186.547 19.6647C186.521 19.7567 186.508 19.8486 186.508 19.9406C186.508 20.0325 186.521 20.1376 186.547 20.2295L184.616 21.346C184.485 21.2278 184.34 21.149 184.17 21.0964V18.8372C184.353 18.7847 184.511 18.6927 184.642 18.5614L186.547 19.6647ZM181.858 12.2435C181.858 10.5491 183.342 9.32759 183.854 8.9598C184.367 9.32759 185.851 10.5491 185.851 12.2435C185.851 13.6621 184.8 14.6866 184.17 15.1726V12.4931C184.17 12.3223 184.025 12.1779 183.854 12.1779C183.67 12.1779 183.539 12.3223 183.539 12.4931V15.1726C182.895 14.6866 181.858 13.6621 181.858 12.2435ZM183.053 18.5614C183.184 18.6927 183.355 18.7847 183.526 18.8372V21.0964C183.355 21.149 183.211 21.2278 183.079 21.3329L181.135 20.2164C181.162 20.1245 181.175 20.0325 181.175 19.9406C181.175 19.8486 181.162 19.7567 181.135 19.6647L183.053 18.5614ZM181.175 24.6297C181.188 24.564 181.188 24.4984 181.188 24.4327C181.188 24.3145 181.175 24.1963 181.135 24.078L183.027 22.9878C183.158 23.1323 183.342 23.2374 183.539 23.3031V25.4441C183.355 25.4966 183.198 25.5886 183.053 25.7199L181.175 24.6297ZM184.656 25.7199C184.524 25.5886 184.353 25.4966 184.17 25.4441V23.3031C184.367 23.2505 184.55 23.1323 184.682 22.9878L186.573 24.078C186.534 24.1831 186.521 24.3013 186.521 24.4327C186.521 24.4984 186.521 24.564 186.534 24.6297L184.656 25.7199ZM191.17 18.916C190.75 19.1525 190.277 19.1131 189.909 19.0211L190.54 18.6533C190.698 18.5614 190.75 18.3775 190.658 18.2199C190.566 18.0623 190.382 18.0097 190.225 18.1017L189.594 18.4694C189.686 18.1148 189.896 17.6814 190.317 17.4318C190.921 17.0771 191.67 17.3004 192.011 17.4449C191.959 17.7996 191.788 18.5614 191.17 18.916Z" fill="#000D35"/>
<path d="M175.445 58V51.7H177.902C178.454 51.7 178.925 51.787 179.315 51.961C179.705 52.135 180.005 52.387 180.215 52.717C180.425 53.047 180.53 53.44 180.53 53.896C180.53 54.352 180.425 54.745 180.215 55.075C180.005 55.399 179.705 55.648 179.315 55.822C178.925 55.996 178.454 56.083 177.902 56.083H175.94L176.345 55.669V58H175.445ZM179.657 58L178.055 55.714H179.018L180.638 58H179.657ZM176.345 55.759L175.94 55.318H177.875C178.451 55.318 178.886 55.195 179.18 54.949C179.48 54.697 179.63 54.346 179.63 53.896C179.63 53.446 179.48 53.098 179.18 52.852C178.886 52.606 178.451 52.483 177.875 52.483H175.94L176.345 52.033V55.759ZM184.32 58.072C183.84 58.072 183.381 58 182.943 57.856C182.505 57.706 182.16 57.514 181.908 57.28L182.241 56.578C182.481 56.788 182.787 56.962 183.159 57.1C183.531 57.238 183.918 57.307 184.32 57.307C184.686 57.307 184.983 57.265 185.211 57.181C185.439 57.097 185.607 56.983 185.715 56.839C185.823 56.689 185.877 56.521 185.877 56.335C185.877 56.119 185.805 55.945 185.661 55.813C185.523 55.681 185.34 55.576 185.112 55.498C184.89 55.414 184.644 55.342 184.374 55.282C184.104 55.222 183.831 55.153 183.555 55.075C183.285 54.991 183.036 54.886 182.808 54.76C182.586 54.634 182.406 54.466 182.268 54.256C182.13 54.04 182.061 53.764 182.061 53.428C182.061 53.104 182.145 52.807 182.313 52.537C182.487 52.261 182.751 52.042 183.105 51.88C183.465 51.712 183.921 51.628 184.473 51.628C184.839 51.628 185.202 51.676 185.562 51.772C185.922 51.868 186.234 52.006 186.498 52.186L186.201 52.906C185.931 52.726 185.646 52.597 185.346 52.519C185.046 52.435 184.755 52.393 184.473 52.393C184.119 52.393 183.828 52.438 183.6 52.528C183.372 52.618 183.204 52.738 183.096 52.888C182.994 53.038 182.943 53.206 182.943 53.392C182.943 53.614 183.012 53.791 183.15 53.923C183.294 54.055 183.477 54.16 183.699 54.238C183.927 54.316 184.176 54.388 184.446 54.454C184.716 54.514 184.986 54.583 185.256 54.661C185.532 54.739 185.781 54.841 186.003 54.967C186.231 55.093 186.414 55.261 186.552 55.471C186.69 55.681 186.759 55.951 186.759 56.281C186.759 56.599 186.672 56.896 186.498 57.172C186.324 57.442 186.054 57.661 185.688 57.829C185.328 57.991 184.872 58.072 184.32 58.072ZM189.366 56.479L189.321 55.381L192.894 51.7H193.92L191.157 54.616L190.653 55.174L189.366 56.479ZM188.574 58V51.7H189.474V58H188.574ZM193.038 58L190.455 54.994L191.058 54.328L194.091 58H193.038Z" fill="white"/>
<path d="M253.308 35.4486C262.866 35.4486 270.615 27.6135 270.615 17.9486C270.615 8.28358 262.866 0.448563 253.308 0.448563C243.749 0.448563 236 8.28358 236 17.9486C236 27.6135 243.749 35.4486 253.308 35.4486Z" fill="#E2E7EC"/>
<path d="M258.708 9.8138L254.968 15.4312C254.914 15.5128 254.892 15.6115 254.904 15.7089C254.917 15.8063 254.965 15.8956 255.038 15.96C255.112 16.0243 255.206 16.0593 255.303 16.0583C255.4 16.0573 255.493 16.0205 255.565 15.9547L259.245 12.7131C259.266 12.6935 259.293 12.6809 259.322 12.677C259.35 12.673 259.379 12.6779 259.405 12.6909C259.431 12.704 259.452 12.7246 259.466 12.7501C259.48 12.7756 259.486 12.8048 259.484 12.8339V22.9613C259.483 22.9915 259.474 23.0208 259.457 23.0456C259.44 23.0704 259.416 23.0894 259.388 23.1003C259.36 23.1111 259.33 23.1132 259.301 23.1064C259.272 23.0996 259.245 23.0841 259.225 23.062L248.086 9.57219C247.911 9.35467 247.689 9.18012 247.438 9.06157C247.186 8.94303 246.912 8.88356 246.634 8.88763H246.236C245.733 8.89189 245.252 9.09753 244.898 9.45967C244.544 9.82181 244.346 10.311 244.347 10.8205V25.0754C244.346 25.4971 244.482 25.9075 244.734 26.2437C244.985 26.58 245.339 26.8238 245.74 26.9378C246.141 27.0519 246.568 27.03 246.956 26.8755C247.344 26.721 247.671 26.4423 247.887 26.0821L251.627 20.4647C251.681 20.3831 251.704 20.2843 251.691 20.1869C251.678 20.0895 251.63 20.0003 251.557 19.9359C251.484 19.8716 251.39 19.8366 251.293 19.8375C251.196 19.8385 251.102 19.8754 251.03 19.9412L247.35 23.1626C247.329 23.1822 247.302 23.1948 247.274 23.1988C247.245 23.2027 247.216 23.1978 247.19 23.1848C247.164 23.1717 247.143 23.1511 247.129 23.1256C247.115 23.1001 247.109 23.0709 247.112 23.0418V12.9346C247.112 12.9044 247.121 12.875 247.138 12.8502C247.155 12.8255 247.179 12.8064 247.207 12.7956C247.235 12.7848 247.265 12.7826 247.295 12.7895C247.324 12.7963 247.35 12.8118 247.37 12.8339L258.509 26.3237C258.686 26.5395 258.908 26.7129 259.159 26.8313C259.41 26.9497 259.684 27.0101 259.961 27.0082H260.359C260.865 27.0082 261.351 26.8046 261.709 26.4421C262.067 26.0796 262.268 25.588 262.268 25.0754V10.8205C262.265 10.3981 262.126 9.98821 261.872 9.65274C261.619 9.31726 261.264 9.07437 260.862 8.96073C260.46 8.84708 260.033 8.86884 259.644 9.02272C259.256 9.17661 258.927 9.45426 258.708 9.8138Z" fill="#313747"/>
<path d="M240.445 58V51.7H241.183L245.35 56.875H244.963V51.7H245.863V58H245.125L240.958 52.825H241.345V58H240.445ZM249.068 54.418H252.308V55.183H249.068V54.418ZM249.149 57.217H252.821V58H248.249V51.7H252.695V52.483H249.149V57.217ZM253.824 58L256.677 51.7H257.568L260.43 58H259.485L256.938 52.204H257.298L254.751 58H253.824ZM255.039 56.425L255.282 55.705H258.828L259.089 56.425H255.039ZM261.87 58V51.7H264.327C264.879 51.7 265.35 51.787 265.74 51.961C266.13 52.135 266.43 52.387 266.64 52.717C266.85 53.047 266.955 53.44 266.955 53.896C266.955 54.352 266.85 54.745 266.64 55.075C266.43 55.399 266.13 55.648 265.74 55.822C265.35 55.996 264.879 56.083 264.327 56.083H262.365L262.77 55.669V58H261.87ZM266.082 58L264.48 55.714H265.443L267.063 58H266.082ZM262.77 55.759L262.365 55.318H264.3C264.876 55.318 265.311 55.195 265.605 54.949C265.905 54.697 266.055 54.346 266.055 53.896C266.055 53.446 265.905 53.098 265.605 52.852C265.311 52.606 264.876 52.483 264.3 52.483H262.365L262.77 52.033V55.759Z" fill="white"/>
<path d="M329.995 35.9202C339.657 35.9202 347.49 28.0852 347.49 18.4202C347.49 8.75526 339.657 0.920242 329.995 0.920242C320.333 0.920242 312.5 8.75526 312.5 18.4202C312.5 28.0852 320.333 35.9202 329.995 35.9202Z" fill="#8247E5"/>
<path d="M335.78 14.5332C335.563 14.4163 335.321 14.3552 335.075 14.3552C334.83 14.3552 334.588 14.4163 334.371 14.5332L331.082 16.4917L328.85 17.738L325.62 19.6964C325.403 19.8133 325.161 19.8744 324.915 19.8744C324.669 19.8744 324.427 19.8133 324.21 19.6964L321.685 18.1534C321.47 18.0255 321.293 17.8432 321.169 17.6247C321.045 17.4061 320.98 17.1588 320.98 16.9071V13.9397C320.982 13.6884 321.048 13.4417 321.171 13.2235C321.295 13.0052 321.472 12.8227 321.685 12.6934L324.21 11.2098C324.427 11.0929 324.669 11.0317 324.915 11.0317C325.161 11.0317 325.403 11.0929 325.62 11.2098L328.145 12.7528C328.36 12.8807 328.538 13.0629 328.661 13.2815C328.785 13.5 328.85 13.7474 328.85 13.9991V15.9575L331.082 14.6519V12.6341C331.08 12.3827 331.014 12.1361 330.891 11.9178C330.767 11.6996 330.59 11.5171 330.377 11.3878L325.679 8.5985C325.462 8.4816 325.22 8.42046 324.974 8.42046C324.728 8.42046 324.486 8.4816 324.269 8.5985L319.453 11.4472C319.238 11.5584 319.057 11.7286 318.932 11.9385C318.808 12.1484 318.744 12.3894 318.749 12.6341V18.2127C318.75 18.4641 318.816 18.7108 318.94 18.929C319.063 19.1473 319.24 19.3298 319.453 19.459L324.21 22.2483C324.427 22.3652 324.669 22.4264 324.915 22.4264C325.161 22.4264 325.403 22.3652 325.62 22.2483L328.85 20.3492L331.082 19.0436L334.312 17.1445C334.529 17.0276 334.771 16.9664 335.017 16.9664C335.262 16.9664 335.505 17.0276 335.721 17.1445L338.247 18.6282C338.461 18.7561 338.639 18.9383 338.763 19.1569C338.886 19.3754 338.951 19.6227 338.952 19.8744V22.8418C338.95 23.0932 338.884 23.3398 338.76 23.5581C338.637 23.7763 338.46 23.9588 338.247 24.0881L335.78 25.5718C335.563 25.6887 335.321 25.7498 335.075 25.7498C334.83 25.7498 334.588 25.6887 334.371 25.5718L331.845 24.0881C331.631 23.9602 331.453 23.7779 331.329 23.5594C331.206 23.3408 331.141 23.0935 331.141 22.8418V20.9427L328.909 22.2483V24.2068C328.911 24.4582 328.976 24.7048 329.1 24.9231C329.223 25.1413 329.4 25.3238 329.614 25.4531L334.371 28.2424C334.588 28.3593 334.83 28.4204 335.075 28.4204C335.321 28.4204 335.563 28.3593 335.78 28.2424L340.537 25.4531C340.752 25.3252 340.93 25.1429 341.053 24.9244C341.177 24.7058 341.242 24.4585 341.242 24.2068V18.5688C341.24 18.3174 341.174 18.0708 341.051 17.8525C340.928 17.6343 340.751 17.4518 340.537 17.3225L335.78 14.5332Z" fill="white"/>
<path d="M305.945 58V51.7H308.402C308.954 51.7 309.425 51.787 309.815 51.961C310.205 52.135 310.505 52.387 310.715 52.717C310.925 53.047 311.03 53.44 311.03 53.896C311.03 54.352 310.925 54.745 310.715 55.075C310.505 55.399 310.205 55.651 309.815 55.831C309.425 56.005 308.954 56.092 308.402 56.092H306.44L306.845 55.669V58H305.945ZM306.845 55.759L306.44 55.309H308.375C308.951 55.309 309.386 55.186 309.68 54.94C309.98 54.694 310.13 54.346 310.13 53.896C310.13 53.446 309.98 53.098 309.68 52.852C309.386 52.606 308.951 52.483 308.375 52.483H306.44L306.845 52.033V55.759ZM315.784 58.072C315.304 58.072 314.857 57.991 314.443 57.829C314.035 57.667 313.681 57.442 313.381 57.154C313.081 56.86 312.847 56.518 312.679 56.128C312.511 55.738 312.427 55.312 312.427 54.85C312.427 54.388 312.511 53.962 312.679 53.572C312.847 53.182 313.081 52.843 313.381 52.555C313.681 52.261 314.035 52.033 314.443 51.871C314.851 51.709 315.298 51.628 315.784 51.628C316.264 51.628 316.705 51.709 317.107 51.871C317.515 52.027 317.869 52.252 318.169 52.546C318.475 52.834 318.709 53.173 318.871 53.563C319.039 53.953 319.123 54.382 319.123 54.85C319.123 55.318 319.039 55.747 318.871 56.137C318.709 56.527 318.475 56.869 318.169 57.163C317.869 57.451 317.515 57.676 317.107 57.838C316.705 57.994 316.264 58.072 315.784 58.072ZM315.784 57.271C316.132 57.271 316.453 57.211 316.747 57.091C317.047 56.971 317.305 56.803 317.521 56.587C317.743 56.365 317.914 56.107 318.034 55.813C318.16 55.519 318.223 55.198 318.223 54.85C318.223 54.502 318.16 54.181 318.034 53.887C317.914 53.593 317.743 53.338 317.521 53.122C317.305 52.9 317.047 52.729 316.747 52.609C316.453 52.489 316.132 52.429 315.784 52.429C315.43 52.429 315.103 52.489 314.803 52.609C314.509 52.729 314.251 52.9 314.029 53.122C313.807 53.338 313.633 53.593 313.507 53.887C313.387 54.181 313.327 54.502 313.327 54.85C313.327 55.198 313.387 55.519 313.507 55.813C313.633 56.107 313.807 56.365 314.029 56.587C314.251 56.803 314.509 56.971 314.803 57.091C315.103 57.211 315.43 57.271 315.784 57.271ZM320.999 58V51.7H321.899V57.217H325.31V58H320.999ZM327.704 58V55.588L327.911 56.146L325.202 51.7H326.165L328.442 55.453H327.92L330.206 51.7H331.097L328.397 56.146L328.595 55.588V58H327.704ZM335.082 58.072C334.596 58.072 334.149 57.994 333.741 57.838C333.333 57.676 332.979 57.451 332.679 57.163C332.379 56.869 332.145 56.527 331.977 56.137C331.809 55.747 331.725 55.318 331.725 54.85C331.725 54.382 331.809 53.953 331.977 53.563C332.145 53.173 332.379 52.834 332.679 52.546C332.985 52.252 333.342 52.027 333.75 51.871C334.158 51.709 334.608 51.628 335.1 51.628C335.598 51.628 336.054 51.709 336.468 51.871C336.882 52.033 337.233 52.276 337.521 52.6L336.963 53.158C336.705 52.906 336.423 52.723 336.117 52.609C335.817 52.489 335.49 52.429 335.136 52.429C334.776 52.429 334.44 52.489 334.128 52.609C333.822 52.729 333.555 52.897 333.327 53.113C333.105 53.329 332.931 53.587 332.805 53.887C332.685 54.181 332.625 54.502 332.625 54.85C332.625 55.192 332.685 55.513 332.805 55.813C332.931 56.107 333.105 56.365 333.327 56.587C333.555 56.803 333.822 56.971 334.128 57.091C334.434 57.211 334.767 57.271 335.127 57.271C335.463 57.271 335.784 57.22 336.09 57.118C336.402 57.01 336.69 56.833 336.954 56.587L337.467 57.271C337.155 57.535 336.789 57.736 336.369 57.874C335.955 58.006 335.526 58.072 335.082 58.072ZM336.603 57.154V54.814H337.467V57.271L336.603 57.154ZM342.534 58.072C342.054 58.072 341.607 57.991 341.193 57.829C340.785 57.667 340.431 57.442 340.131 57.154C339.831 56.86 339.597 56.518 339.429 56.128C339.261 55.738 339.177 55.312 339.177 54.85C339.177 54.388 339.261 53.962 339.429 53.572C339.597 53.182 339.831 52.843 340.131 52.555C340.431 52.261 340.785 52.033 341.193 51.871C341.601 51.709 342.048 51.628 342.534 51.628C343.014 51.628 343.455 51.709 343.857 51.871C344.265 52.027 344.619 52.252 344.919 52.546C345.225 52.834 345.459 53.173 345.621 53.563C345.789 53.953 345.873 54.382 345.873 54.85C345.873 55.318 345.789 55.747 345.621 56.137C345.459 56.527 345.225 56.869 344.919 57.163C344.619 57.451 344.265 57.676 343.857 57.838C343.455 57.994 343.014 58.072 342.534 58.072ZM342.534 57.271C342.882 57.271 343.203 57.211 343.497 57.091C343.797 56.971 344.055 56.803 344.271 56.587C344.493 56.365 344.664 56.107 344.784 55.813C344.91 55.519 344.973 55.198 344.973 54.85C344.973 54.502 344.91 54.181 344.784 53.887C344.664 53.593 344.493 53.338 344.271 53.122C344.055 52.9 343.797 52.729 343.497 52.609C343.203 52.489 342.882 52.429 342.534 52.429C342.18 52.429 341.853 52.489 341.553 52.609C341.259 52.729 341.001 52.9 340.779 53.122C340.557 53.338 340.383 53.593 340.257 53.887C340.137 54.181 340.077 54.502 340.077 54.85C340.077 55.198 340.137 55.519 340.257 55.813C340.383 56.107 340.557 56.365 340.779 56.587C341.001 56.803 341.259 56.971 341.553 57.091C341.853 57.211 342.18 57.271 342.534 57.271ZM347.749 58V51.7H348.487L352.654 56.875H352.267V51.7H353.167V58H352.429L348.262 52.825H348.649V58H347.749Z" fill="white"/>
<path d="M406.5 36C416.165 36 424 28.165 424 18.5C424 8.83502 416.165 1 406.5 1C396.835 1 389 8.83502 389 18.5C389 28.165 396.835 36 406.5 36Z" fill="#F3BA2F"/>
<path d="M410.127 17.0116L406.501 13.386L402.874 17.0134L400.764 14.9038L406.501 9.16667L412.237 14.9019L410.127 17.0116ZM415.836 18.5014L413.727 16.3917L411.617 18.5014L413.727 20.611L415.836 18.5014ZM410.127 19.9912L406.501 23.6168L402.874 19.9893L400.764 22.098L406.501 27.8361L412.24 22.098L410.127 19.9912ZM401.386 18.5014L399.276 16.3917L397.167 18.5014L399.276 20.611L401.386 18.5014ZM404.362 18.4995H404.36V18.5014L406.501 20.6428L408.644 18.5014L408.64 18.4986L408.266 18.1233L406.501 16.36L404.361 18.5005L404.362 18.4995Z" fill="white"/>
<path d="M396.445 58V51.7H399.271C399.997 51.7 400.555 51.847 400.945 52.141C401.335 52.429 401.53 52.825 401.53 53.329C401.53 53.671 401.452 53.959 401.296 54.193C401.146 54.427 400.942 54.607 400.684 54.733C400.426 54.859 400.147 54.922 399.847 54.922L400.009 54.652C400.369 54.652 400.687 54.715 400.963 54.841C401.239 54.967 401.458 55.153 401.62 55.399C401.782 55.639 401.863 55.939 401.863 56.299C401.863 56.839 401.659 57.259 401.251 57.559C400.849 57.853 400.249 58 399.451 58H396.445ZM397.345 57.271H399.415C399.913 57.271 400.294 57.187 400.558 57.019C400.822 56.851 400.954 56.587 400.954 56.227C400.954 55.861 400.822 55.594 400.558 55.426C400.294 55.258 399.913 55.174 399.415 55.174H397.264V54.445H399.19C399.646 54.445 400 54.361 400.252 54.193C400.504 54.025 400.63 53.773 400.63 53.437C400.63 53.101 400.504 52.849 400.252 52.681C400 52.513 399.646 52.429 399.19 52.429H397.345V57.271ZM403.757 58V51.7H404.495L408.662 56.875H408.275V51.7H409.175V58H408.437L404.27 52.825H404.657V58H403.757ZM411.56 58V51.7H414.386C415.112 51.7 415.67 51.847 416.06 52.141C416.45 52.429 416.645 52.825 416.645 53.329C416.645 53.671 416.567 53.959 416.411 54.193C416.261 54.427 416.057 54.607 415.799 54.733C415.541 54.859 415.262 54.922 414.962 54.922L415.124 54.652C415.484 54.652 415.802 54.715 416.078 54.841C416.354 54.967 416.573 55.153 416.735 55.399C416.897 55.639 416.978 55.939 416.978 56.299C416.978 56.839 416.774 57.259 416.366 57.559C415.964 57.853 415.364 58 414.566 58H411.56ZM412.46 57.271H414.53C415.028 57.271 415.409 57.187 415.673 57.019C415.937 56.851 416.069 56.587 416.069 56.227C416.069 55.861 415.937 55.594 415.673 55.426C415.409 55.258 415.028 55.174 414.53 55.174H412.379V54.445H414.305C414.761 54.445 415.115 54.361 415.367 54.193C415.619 54.025 415.745 53.773 415.745 53.437C415.745 53.101 415.619 52.849 415.367 52.681C415.115 52.513 414.761 52.429 414.305 52.429H412.46V57.271Z" fill="white"/>
<path d="M501.012 24.8745C501.013 25.7063 500.794 26.5237 500.379 27.2442C499.963 27.9648 499.365 28.5632 498.645 28.9791L487.519 35.3705C486.801 35.7829 485.988 36 485.16 36C484.332 36 483.519 35.7829 482.801 35.3705L471.676 28.9791C470.955 28.5632 470.357 27.9648 469.941 27.2442C469.526 26.5237 469.308 25.7063 469.308 24.8745V12.1249C469.308 11.293 469.526 10.4757 469.941 9.75508C470.357 9.03449 470.955 8.43611 471.676 8.02019L482.801 1.62883C483.519 1.21681 484.332 1 485.159 1C485.986 1 486.799 1.21681 487.517 1.62883L498.642 8.02019C499.363 8.43611 499.961 9.03449 500.376 9.75508C500.792 10.4757 501.01 11.293 501.01 12.1249L501.012 24.8745Z" fill="#1D86CC"/>
<path d="M483.785 3.40558L472.801 9.75197C472.385 9.99187 472.039 10.3368 471.798 10.7522C471.557 11.1676 471.43 11.6389 471.428 12.1191V24.8214C471.43 25.3013 471.557 25.7724 471.798 26.1878C472.038 26.6031 472.383 26.9482 472.799 27.1886L483.797 33.5444C484.214 33.7863 484.687 33.9138 485.17 33.9138C485.652 33.9138 486.125 33.7863 486.543 33.5444L497.526 27.2028C497.942 26.9627 498.288 26.6177 498.529 26.2024C498.769 25.787 498.897 25.3158 498.899 24.8356V12.1333C498.897 11.6532 498.769 11.1819 498.529 10.7665C498.288 10.3512 497.942 10.0063 497.526 9.76617L486.531 3.40795C486.113 3.16718 485.64 3.04043 485.158 3.04043C484.676 3.04043 484.202 3.16718 483.785 3.40795V3.40558Z" fill="white"/>
<path d="M480.159 29.2716C480.174 29.1848 480.212 29.1033 480.268 29.0349C483.553 23.4594 486.84 17.8847 490.127 12.3108C490.172 12.2327 490.214 12.1546 490.252 12.086C490.224 12.0339 490.191 12.0457 490.162 12.0457C488.759 12.0457 487.355 12.0599 485.949 12.0457C485.889 12.0442 485.829 12.0613 485.779 12.0948C485.729 12.1283 485.691 12.1765 485.67 12.2327C484.614 13.9986 483.553 15.7567 482.488 17.5068C480.239 21.2185 477.99 24.9302 475.739 28.642C475.72 28.6751 475.699 28.7059 475.68 28.7414C475.642 28.8171 475.595 28.829 475.514 28.784C475.166 28.5757 474.804 28.3768 474.442 28.1638L484.455 12.1073C484.434 12.041 484.389 12.0576 484.356 12.0576C483.818 12.041 483.281 12.0173 482.746 12.0126C481.993 11.9907 481.243 12.1112 480.535 12.3677C479.891 12.6056 479.343 13.05 478.978 13.6317C477.147 16.4865 475.309 19.3358 473.464 22.1796L473.377 22.3145C473.27 22.3145 473.287 22.2269 473.277 22.1654C473.27 22.074 473.27 21.9822 473.277 21.8908C473.277 18.7424 473.277 15.5965 473.277 12.4505C473.26 12.1792 473.325 11.9091 473.464 11.6752C473.602 11.4413 473.808 11.2545 474.054 11.1391C476.473 9.76139 478.876 8.35293 481.288 6.95866C482.365 6.33846 483.444 5.723 484.512 5.08623C484.714 4.95208 484.95 4.88051 485.193 4.88051C485.435 4.88051 485.671 4.95208 485.873 5.08623C487.838 6.23904 489.819 7.36582 491.791 8.50206L496.263 11.0728C496.369 11.132 496.473 11.1983 496.58 11.2574C496.755 11.3499 496.899 11.4904 496.996 11.6624C497.094 11.8344 497.14 12.0307 497.129 12.228C497.129 15.6509 497.129 19.0738 497.129 22.4968C497.134 22.5767 497.124 22.6569 497.101 22.7335C496.982 22.8471 496.94 22.7193 496.897 22.6577C496.719 22.4092 496.561 22.1464 496.395 21.8884C495.074 19.8195 493.749 17.7538 492.418 15.6912C491.971 14.9952 491.519 14.2993 491.076 13.6009C490.972 13.4376 490.955 13.4352 490.839 13.6009C490.172 14.7309 489.505 15.86 488.839 16.9884C488.802 17.0511 488.786 17.1238 488.794 17.1961C488.801 17.2685 488.831 17.3366 488.879 17.3908C489.429 18.2761 489.981 19.163 490.536 20.0515L493.344 24.5917C493.723 25.2056 494.102 25.8187 494.483 26.431C494.552 26.514 494.592 26.6185 494.594 26.7269C494.518 26.876 494.357 26.9187 494.227 26.9873C494.009 27.1444 493.77 27.2688 493.517 27.3566C493.382 27.3234 493.332 27.2003 493.268 27.0986C492.399 25.7445 491.542 24.381 490.678 23.0223C489.791 21.6257 488.908 20.2243 488.015 18.83C487.902 18.6501 487.883 18.6501 487.779 18.83C487.005 20.1343 486.24 21.4458 485.461 22.7501C485.422 22.8111 485.402 22.8829 485.406 22.9555C485.409 23.0281 485.435 23.0978 485.48 23.1549C486.529 24.7693 487.551 26.3979 488.588 28.0194C488.877 28.4715 489.168 28.9237 489.452 29.3781C489.507 29.4681 489.582 29.5557 489.533 29.674C489.261 29.8865 488.968 30.0691 488.657 30.2185L485.743 31.9276C485.588 32.0294 485.407 32.0837 485.222 32.0837C485.037 32.0837 484.856 32.0294 484.701 31.9276C483.281 31.1022 481.85 30.2808 480.41 29.4634C480.31 29.4234 480.223 29.3571 480.159 29.2716Z" fill="#2D374B"/>
<path d="M497.045 22.7808C497.045 22.6955 497.045 22.6103 497.045 22.5275C497.045 19.1124 497.045 15.6974 497.045 12.2824C497.058 12.0754 497.009 11.8692 496.906 11.6893C496.803 11.5093 496.65 11.3633 496.465 11.2692C492.88 9.21766 489.296 7.15743 485.714 5.08852C485.552 4.98416 485.364 4.92865 485.172 4.92865C484.979 4.92865 484.791 4.98416 484.629 5.08852C482.647 6.24212 480.66 7.39809 478.667 8.55643L473.868 11.3236C473.697 11.4126 473.555 11.5494 473.459 11.7174C473.364 11.8855 473.319 12.0776 473.331 12.2705C473.34 15.5467 473.345 18.8228 473.345 22.099C473.345 22.1724 473.317 22.2529 473.381 22.3168C473.002 22.9488 472.585 23.5548 472.185 24.1727C471.986 24.4883 471.786 24.796 471.584 25.0958C471.551 25.1456 471.515 25.1905 471.451 25.2805C471.451 25.1763 471.451 25.1195 471.451 25.0627C471.451 20.7434 471.451 16.4225 471.451 12.1001C471.438 11.6199 471.557 11.1452 471.797 10.7287C472.036 10.3122 472.386 9.96998 472.808 9.74001C474.2 8.91387 475.608 8.1185 477.007 7.30893C478.191 6.62481 479.374 5.93597 480.558 5.24949C481.659 4.61035 482.748 3.95228 483.872 3.35575C484.301 3.11705 484.786 2.99792 485.276 3.01083C485.767 3.02374 486.245 3.16821 486.66 3.42913C487.56 3.93808 488.455 4.45885 489.352 4.9749L491.866 6.42597L496.513 9.09614C496.854 9.29025 497.192 9.48672 497.528 9.68557C497.9 9.89565 498.22 10.1869 498.464 10.5378C498.708 10.8886 498.869 11.2899 498.937 11.7119C498.953 11.8334 498.958 11.9563 498.951 12.0788C498.951 16.3302 498.951 20.5824 498.951 24.8355C498.955 25.2413 498.868 25.643 498.698 26.0114C498.528 26.3798 498.278 26.7059 497.966 26.9659C497.788 27.1001 497.598 27.2167 497.398 27.3139C496.244 27.9862 495.091 28.6553 493.937 29.3213L490.251 31.4517C489.071 32.1366 487.887 32.8231 486.701 33.5111C486.408 33.709 486.077 33.8451 485.73 33.9112C485.153 34.0238 484.556 33.9474 484.026 33.6934C483.439 33.3786 482.866 33.0377 482.288 32.7063L479.954 31.3641L479.296 30.9877C479.216 30.9404 479.161 30.8954 479.223 30.7889C479.514 30.3036 479.8 29.8136 480.089 29.326C480.089 29.307 480.125 29.2999 480.144 29.2857C480.413 29.4116 480.674 29.5555 480.925 29.7166C482.195 30.4409 483.462 31.17 484.726 31.9038C484.872 31.9976 485.041 32.0475 485.214 32.0475C485.387 32.0475 485.556 31.9976 485.702 31.9038C486.904 31.1937 488.112 30.5025 489.316 29.8042L489.499 29.7047C489.612 29.5599 489.764 29.4493 489.937 29.3852C491.026 28.7626 492.107 28.1258 493.196 27.4914C493.286 27.4394 493.369 27.3589 493.487 27.3731L494.553 26.7552C494.619 26.6179 494.759 26.5753 494.875 26.5185C495.41 26.2084 495.942 25.8912 496.484 25.5906C496.641 25.5081 496.77 25.3824 496.857 25.2283C496.944 25.0742 496.985 24.8984 496.974 24.7218C496.974 24.1774 496.974 23.6353 496.974 23.0909C496.964 23.0371 496.965 22.9817 496.977 22.9283C496.989 22.8749 497.012 22.8246 497.045 22.7808Z" fill="#96BEDC"/>
<path d="M497.048 22.7783C497.048 23.4529 497.065 24.1299 497.048 24.8022C497.052 24.9599 497.012 25.1155 496.933 25.252C496.854 25.3885 496.739 25.5007 496.601 25.5763C495.921 25.9597 495.254 26.3669 494.57 26.7409C494.297 26.2438 493.982 25.7704 493.684 25.2875C492.138 22.7798 490.59 20.2746 489.04 17.7717C488.947 17.6226 488.862 17.4663 488.758 17.3243C488.726 17.2827 488.708 17.2315 488.708 17.1787C488.708 17.126 488.726 17.0747 488.758 17.0331C489.13 16.4153 489.492 15.7927 489.859 15.1725L490.874 13.4469C490.893 13.4064 490.925 13.3732 490.964 13.3522C491.143 13.6252 491.32 13.8998 491.497 14.176C492.567 15.8393 493.636 17.5042 494.704 19.1707L496.88 22.5581C496.92 22.6426 496.977 22.7176 497.048 22.7783Z" fill="#28A0F0"/>
<path d="M493.502 27.3581C493.061 27.6469 492.593 27.8931 492.138 28.1629C491.312 28.6364 490.481 29.124 489.655 29.6045L489.515 29.6803C489.503 29.6043 489.47 29.5331 489.421 29.4743C488.682 28.316 487.945 27.1577 487.21 25.9993L485.387 23.1587C485.345 23.1097 485.321 23.0482 485.318 22.984C485.315 22.9198 485.334 22.8564 485.37 22.8037C486.185 21.4323 486.996 20.0585 487.804 18.6824C487.823 18.6516 487.837 18.6138 487.884 18.6043C487.932 18.5948 487.967 18.6848 487.998 18.7345L492.401 25.6703L493.348 27.1474C493.388 27.2302 493.444 27.3048 493.511 27.3676L493.502 27.3581Z" fill="#28A0F0"/>
<path d="M457.991 58L460.844 51.7H461.735L464.597 58H463.652L461.105 52.204H461.465L458.918 58H457.991ZM459.206 56.425L459.449 55.705H462.995L463.256 56.425H459.206ZM466.037 58V51.7H468.494C469.046 51.7 469.517 51.787 469.907 51.961C470.297 52.135 470.597 52.387 470.807 52.717C471.017 53.047 471.122 53.44 471.122 53.896C471.122 54.352 471.017 54.745 470.807 55.075C470.597 55.399 470.297 55.648 469.907 55.822C469.517 55.996 469.046 56.083 468.494 56.083H466.532L466.937 55.669V58H466.037ZM470.249 58L468.647 55.714H469.61L471.23 58H470.249ZM466.937 55.759L466.532 55.318H468.467C469.043 55.318 469.478 55.195 469.772 54.949C470.072 54.697 470.222 54.346 470.222 53.896C470.222 53.446 470.072 53.098 469.772 52.852C469.478 52.606 469.043 52.483 468.467 52.483H466.532L466.937 52.033V55.759ZM473.076 58V51.7H475.902C476.628 51.7 477.186 51.847 477.576 52.141C477.966 52.429 478.161 52.825 478.161 53.329C478.161 53.671 478.083 53.959 477.927 54.193C477.777 54.427 477.573 54.607 477.315 54.733C477.057 54.859 476.778 54.922 476.478 54.922L476.64 54.652C477 54.652 477.318 54.715 477.594 54.841C477.87 54.967 478.089 55.153 478.251 55.399C478.413 55.639 478.494 55.939 478.494 56.299C478.494 56.839 478.29 57.259 477.882 57.559C477.48 57.853 476.88 58 476.082 58H473.076ZM473.976 57.271H476.046C476.544 57.271 476.925 57.187 477.189 57.019C477.453 56.851 477.585 56.587 477.585 56.227C477.585 55.861 477.453 55.594 477.189 55.426C476.925 55.258 476.544 55.174 476.046 55.174H473.895V54.445H475.821C476.277 54.445 476.631 54.361 476.883 54.193C477.135 54.025 477.261 53.773 477.261 53.437C477.261 53.101 477.135 52.849 476.883 52.681C476.631 52.513 476.277 52.429 475.821 52.429H473.976V57.271ZM480.387 58V51.7H481.287V58H480.387ZM484.925 58V52.483H482.765V51.7H487.976V52.483H485.816V58H484.925ZM489.456 58V51.7H491.913C492.465 51.7 492.936 51.787 493.326 51.961C493.716 52.135 494.016 52.387 494.226 52.717C494.436 53.047 494.541 53.44 494.541 53.896C494.541 54.352 494.436 54.745 494.226 55.075C494.016 55.399 493.716 55.648 493.326 55.822C492.936 55.996 492.465 56.083 491.913 56.083H489.951L490.356 55.669V58H489.456ZM493.668 58L492.066 55.714H493.029L494.649 58H493.668ZM490.356 55.759L489.951 55.318H491.886C492.462 55.318 492.897 55.195 493.191 54.949C493.491 54.697 493.641 54.346 493.641 53.896C493.641 53.446 493.491 53.098 493.191 52.852C492.897 52.606 492.462 52.483 491.886 52.483H489.951L490.356 52.033V55.759ZM499.105 58.072C498.277 58.072 497.626 57.835 497.152 57.361C496.678 56.887 496.441 56.194 496.441 55.282V51.7H497.341V55.246C497.341 55.948 497.494 56.461 497.8 56.785C498.112 57.109 498.55 57.271 499.114 57.271C499.684 57.271 500.122 57.109 500.428 56.785C500.74 56.461 500.896 55.948 500.896 55.246V51.7H501.769V55.282C501.769 56.194 501.532 56.887 501.058 57.361C500.59 57.835 499.939 58.072 499.105 58.072ZM504.114 58V51.7H504.852L507.678 56.461H507.282L510.072 51.7H510.81L510.819 58H509.955L509.946 53.059H510.153L507.669 57.235H507.255L504.753 53.059H504.978V58H504.114Z" fill="white"/>
<path d="M571.5 35.8701C581.165 35.8701 589 28.0351 589 18.3701C589 8.70513 581.165 0.870117 571.5 0.870117C561.835 0.870117 554 8.70513 554 18.3701C554 28.0351 561.835 35.8701 571.5 35.8701Z" fill="#FF0420"/>
<path d="M566.399 23.0217C565.358 23.0217 564.504 22.7765 563.838 22.286C563.181 21.7872 562.853 21.0778 562.853 20.158C562.857 19.9203 562.879 19.6833 562.919 19.4489C563.033 18.818 563.195 18.0606 563.405 17.1767C564 14.7687 565.537 13.5647 568.015 13.5647C568.636 13.5542 569.253 13.6705 569.828 13.9063C570.338 14.1062 570.776 14.4538 571.088 14.9045C571.394 15.3423 571.548 15.8675 571.548 16.4802C571.543 16.7137 571.521 16.9465 571.482 17.1767C571.35 17.9561 571.192 18.7135 571.009 19.4489C570.702 20.6487 570.173 21.5461 569.42 22.1411C568.667 22.7287 567.66 23.0222 566.399 23.0217ZM566.583 21.1317C567.038 21.1441 567.482 20.9897 567.831 20.6977C568.181 20.4093 568.431 19.966 568.58 19.3677C568.781 18.5445 568.935 17.8266 569.04 17.2138C569.075 17.0276 569.092 16.8385 569.092 16.6489C569.092 15.8523 568.676 15.454 567.844 15.454C567.386 15.4431 566.939 15.5968 566.584 15.8873C566.242 16.1762 565.997 16.6184 565.848 17.2138C565.691 17.8004 565.533 18.5184 565.376 19.3677C565.34 19.5494 565.323 19.7342 565.323 19.9193C565.323 20.7267 565.743 21.1303 566.583 21.1303V21.1317Z" fill="white"/>
<path d="M572.151 22.8902C572.109 22.8925 572.068 22.8855 572.029 22.8696C571.99 22.8538 571.956 22.8294 571.928 22.7985C571.884 22.7278 571.87 22.6428 571.888 22.5619L573.701 14.0219C573.717 13.9276 573.769 13.8432 573.846 13.786C573.916 13.7275 574.004 13.6949 574.095 13.6936H577.59C578.562 13.6936 579.341 13.8949 579.928 14.2977C580.523 14.7009 580.821 15.2842 580.821 16.0477C580.82 16.2776 580.794 16.5067 580.743 16.7309C580.524 17.7375 580.082 18.4818 579.416 18.9639C578.759 19.445 577.856 19.6856 576.709 19.6856H574.936L574.331 22.5619C574.315 22.6562 574.264 22.7408 574.187 22.7985C574.117 22.8564 574.029 22.8887 573.937 22.8902H572.151ZM576.801 17.8726C577.145 17.88 577.482 17.774 577.759 17.5709C578.045 17.361 578.242 17.0515 578.311 16.7036C578.336 16.5736 578.349 16.4418 578.351 16.3095C578.351 16.0554 578.276 15.8629 578.128 15.732C577.979 15.6011 577.724 15.522 577.366 15.522H575.79L575.29 17.8733L576.801 17.8726Z" fill="white"/>
<path d="M549.789 58.072C549.309 58.072 548.862 57.991 548.448 57.829C548.04 57.667 547.686 57.442 547.386 57.154C547.086 56.86 546.852 56.518 546.684 56.128C546.516 55.738 546.432 55.312 546.432 54.85C546.432 54.388 546.516 53.962 546.684 53.572C546.852 53.182 547.086 52.843 547.386 52.555C547.686 52.261 548.04 52.033 548.448 51.871C548.856 51.709 549.303 51.628 549.789 51.628C550.269 51.628 550.71 51.709 551.112 51.871C551.52 52.027 551.874 52.252 552.174 52.546C552.48 52.834 552.714 53.173 552.876 53.563C553.044 53.953 553.128 54.382 553.128 54.85C553.128 55.318 553.044 55.747 552.876 56.137C552.714 56.527 552.48 56.869 552.174 57.163C551.874 57.451 551.52 57.676 551.112 57.838C550.71 57.994 550.269 58.072 549.789 58.072ZM549.789 57.271C550.137 57.271 550.458 57.211 550.752 57.091C551.052 56.971 551.31 56.803 551.526 56.587C551.748 56.365 551.919 56.107 552.039 55.813C552.165 55.519 552.228 55.198 552.228 54.85C552.228 54.502 552.165 54.181 552.039 53.887C551.919 53.593 551.748 53.338 551.526 53.122C551.31 52.9 551.052 52.729 550.752 52.609C550.458 52.489 550.137 52.429 549.789 52.429C549.435 52.429 549.108 52.489 548.808 52.609C548.514 52.729 548.256 52.9 548.034 53.122C547.812 53.338 547.638 53.593 547.512 53.887C547.392 54.181 547.332 54.502 547.332 54.85C547.332 55.198 547.392 55.519 547.512 55.813C547.638 56.107 547.812 56.365 548.034 56.587C548.256 56.803 548.514 56.971 548.808 57.091C549.108 57.211 549.435 57.271 549.789 57.271ZM555.004 58V51.7H557.461C558.013 51.7 558.484 51.787 558.874 51.961C559.264 52.135 559.564 52.387 559.774 52.717C559.984 53.047 560.089 53.44 560.089 53.896C560.089 54.352 559.984 54.745 559.774 55.075C559.564 55.399 559.264 55.651 558.874 55.831C558.484 56.005 558.013 56.092 557.461 56.092H555.499L555.904 55.669V58H555.004ZM555.904 55.759L555.499 55.309H557.434C558.01 55.309 558.445 55.186 558.739 54.94C559.039 54.694 559.189 54.346 559.189 53.896C559.189 53.446 559.039 53.098 558.739 52.852C558.445 52.606 558.01 52.483 557.434 52.483H555.499L555.904 52.033V55.759ZM562.96 58V52.483H560.8V51.7H566.011V52.483H563.851V58H562.96ZM567.491 58V51.7H568.391V58H567.491ZM570.777 58V51.7H571.515L574.341 56.461H573.945L576.735 51.7H577.473L577.482 58H576.618L576.609 53.059H576.816L574.332 57.235H573.918L571.416 53.059H571.641V58H570.777ZM579.873 58V51.7H580.773V58H579.873ZM584.995 58.072C584.515 58.072 584.056 58 583.618 57.856C583.18 57.706 582.835 57.514 582.583 57.28L582.916 56.578C583.156 56.788 583.462 56.962 583.834 57.1C584.206 57.238 584.593 57.307 584.995 57.307C585.361 57.307 585.658 57.265 585.886 57.181C586.114 57.097 586.282 56.983 586.39 56.839C586.498 56.689 586.552 56.521 586.552 56.335C586.552 56.119 586.48 55.945 586.336 55.813C586.198 55.681 586.015 55.576 585.787 55.498C585.565 55.414 585.319 55.342 585.049 55.282C584.779 55.222 584.506 55.153 584.23 55.075C583.96 54.991 583.711 54.886 583.483 54.76C583.261 54.634 583.081 54.466 582.943 54.256C582.805 54.04 582.736 53.764 582.736 53.428C582.736 53.104 582.82 52.807 582.988 52.537C583.162 52.261 583.426 52.042 583.78 51.88C584.14 51.712 584.596 51.628 585.148 51.628C585.514 51.628 585.877 51.676 586.237 51.772C586.597 51.868 586.909 52.006 587.173 52.186L586.876 52.906C586.606 52.726 586.321 52.597 586.021 52.519C585.721 52.435 585.43 52.393 585.148 52.393C584.794 52.393 584.503 52.438 584.275 52.528C584.047 52.618 583.879 52.738 583.771 52.888C583.669 53.038 583.618 53.206 583.618 53.392C583.618 53.614 583.687 53.791 583.825 53.923C583.969 54.055 584.152 54.16 584.374 54.238C584.602 54.316 584.851 54.388 585.121 54.454C585.391 54.514 585.661 54.583 585.931 54.661C586.207 54.739 586.456 54.841 586.678 54.967C586.906 55.093 587.089 55.261 587.227 55.471C587.365 55.681 587.434 55.951 587.434 56.281C587.434 56.599 587.347 56.896 587.173 57.172C586.999 57.442 586.729 57.661 586.363 57.829C586.003 57.991 585.547 58.072 584.995 58.072ZM589.249 58V51.7H589.987L592.813 56.461H592.417L595.207 51.7H595.945L595.954 58H595.09L595.081 53.059H595.288L592.804 57.235H592.39L589.888 53.059H590.113V58H589.249Z" fill="white"/>
<path d="M678.75 18.5C678.75 27.7508 671.251 35.25 662 35.25C652.749 35.25 645.25 27.7508 645.25 18.5C645.25 9.24923 652.749 1.75 662 1.75C671.251 1.75 678.75 9.24923 678.75 18.5Z" fill="#E84142" stroke="#E84142" stroke-width="1.5"/>
<path fill-rule="evenodd" clip-rule="evenodd" d="M657.697 24.5852H654.874C654.281 24.5852 653.988 24.5852 653.809 24.4709C653.715 24.4094 653.636 24.3265 653.579 24.2289C653.523 24.1313 653.49 24.0218 653.484 23.9092C653.473 23.6985 653.62 23.4411 653.913 22.9266L660.883 10.6409C661.18 10.1193 661.33 9.85839 661.52 9.76193C661.62 9.71083 661.732 9.6842 661.845 9.6842C661.958 9.6842 662.069 9.71083 662.17 9.76193C662.359 9.85878 662.509 10.1193 662.806 10.6409L664.239 13.1424L664.247 13.1552C664.567 13.7149 664.729 13.9987 664.8 14.2966C664.879 14.6231 664.879 14.9635 664.8 15.29C664.729 15.5902 664.568 15.8761 664.243 16.4442L660.582 22.9164L660.573 22.933C660.25 23.4972 660.087 23.7833 659.86 23.9983C659.615 24.2329 659.317 24.4056 658.992 24.5019C658.694 24.5852 658.362 24.5852 657.697 24.5852ZM664.826 24.5852H668.871C669.468 24.5852 669.768 24.5852 669.947 24.4674C670.042 24.4058 670.121 24.3225 670.178 24.2243C670.234 24.1262 670.267 24.016 670.272 23.9028C670.283 23.6989 670.139 23.4515 669.858 22.9669C669.849 22.9505 669.839 22.9336 669.829 22.9166L667.803 19.4495L667.78 19.4108C667.495 18.9295 667.352 18.6862 667.167 18.5922C667.067 18.5412 666.956 18.5145 666.844 18.5145C666.731 18.5145 666.62 18.5412 666.52 18.5922C666.334 18.6891 666.184 18.9424 665.888 19.4534L663.869 22.9204L663.862 22.9324C663.566 23.4426 663.418 23.6975 663.429 23.9067C663.435 24.0197 663.468 24.1297 663.525 24.2279C663.581 24.326 663.66 24.4095 663.754 24.4717C663.929 24.5852 664.23 24.5852 664.826 24.5852Z" fill="white"/>
<path d="M630.991 58L633.844 51.7H634.735L637.597 58H636.652L634.105 52.204H634.465L631.918 58H630.991ZM632.206 56.425L632.449 55.705H635.995L636.256 56.425H632.206ZM640.521 58L637.749 51.7H638.721L641.268 57.514H640.71L643.275 51.7H644.175L641.412 58H640.521ZM644.322 58L647.175 51.7H648.066L650.928 58H649.983L647.436 52.204H647.796L645.249 58H644.322ZM645.537 56.425L645.78 55.705H649.326L649.587 56.425H645.537ZM652.368 58V51.7H653.268V57.217H656.679V58H652.368ZM657.258 58L660.111 51.7H661.002L663.864 58H662.919L660.372 52.204H660.732L658.185 58H657.258ZM658.473 56.425L658.716 55.705H662.262L662.523 56.425H658.473ZM665.303 58V51.7H666.041L670.208 56.875H669.821V51.7H670.721V58H669.983L665.816 52.825H666.203V58H665.303ZM675.924 58.072C675.444 58.072 675 57.994 674.592 57.838C674.19 57.676 673.839 57.451 673.539 57.163C673.245 56.869 673.014 56.527 672.846 56.137C672.678 55.747 672.594 55.318 672.594 54.85C672.594 54.382 672.678 53.953 672.846 53.563C673.014 53.173 673.248 52.834 673.548 52.546C673.848 52.252 674.199 52.027 674.601 51.871C675.009 51.709 675.453 51.628 675.933 51.628C676.419 51.628 676.866 51.712 677.274 51.88C677.688 52.042 678.039 52.285 678.327 52.609L677.742 53.176C677.502 52.924 677.232 52.738 676.932 52.618C676.632 52.492 676.311 52.429 675.969 52.429C675.615 52.429 675.285 52.489 674.979 52.609C674.679 52.729 674.418 52.897 674.196 53.113C673.974 53.329 673.8 53.587 673.674 53.887C673.554 54.181 673.494 54.502 673.494 54.85C673.494 55.198 673.554 55.522 673.674 55.822C673.8 56.116 673.974 56.371 674.196 56.587C674.418 56.803 674.679 56.971 674.979 57.091C675.285 57.211 675.615 57.271 675.969 57.271C676.311 57.271 676.632 57.211 676.932 57.091C677.232 56.965 677.502 56.773 677.742 56.515L678.327 57.082C678.039 57.406 677.688 57.652 677.274 57.82C676.866 57.988 676.416 58.072 675.924 58.072ZM684.629 51.7H685.529V58H684.629V51.7ZM681.011 58H680.111V51.7H681.011V58ZM684.71 55.192H680.921V54.409H684.71V55.192ZM688.734 54.418H691.974V55.183H688.734V54.418ZM688.815 57.217H692.487V58H687.915V51.7H692.361V52.483H688.815V57.217Z" fill="white"/>
<path d="M748 36C757.665 36 765.5 28.165 765.5 18.5C765.5 8.83502 757.665 1 748 1C738.335 1 730.5 8.83502 730.5 18.5C730.5 28.165 738.335 36 748 36Z" fill="white"/>
<path d="M756.145 22.0905L753.436 24.9407C753.377 25.0026 753.306 25.052 753.227 25.0857C753.148 25.1195 753.062 25.1369 752.976 25.1368H740.136C740.075 25.1368 740.015 25.1192 739.964 25.0863C739.913 25.0533 739.872 25.0064 739.848 24.9513C739.823 24.8961 739.816 24.8352 739.826 24.776C739.837 24.7167 739.865 24.6617 739.906 24.6178L742.617 21.7676C742.676 21.7058 742.747 21.6566 742.826 21.6228C742.904 21.5891 742.99 21.5716 743.076 21.5715H755.915C755.976 21.5715 756.036 21.5891 756.087 21.622C756.139 21.655 756.179 21.7019 756.203 21.757C756.228 21.8122 756.235 21.8731 756.225 21.9323C756.214 21.9916 756.187 22.0466 756.145 22.0905ZM753.436 16.351C753.377 16.2891 753.306 16.2397 753.227 16.206C753.148 16.1723 753.062 16.1549 752.976 16.1549H740.136C740.075 16.1549 740.015 16.1725 739.964 16.2055C739.913 16.2384 739.872 16.2853 739.848 16.3405C739.823 16.3956 739.816 16.4565 739.826 16.5158C739.837 16.575 739.865 16.63 739.906 16.674L742.617 19.5242C742.676 19.5859 742.747 19.6352 742.826 19.6689C742.904 19.7026 742.99 19.7201 743.076 19.7202H755.915C755.976 19.7202 756.036 19.7027 756.087 19.6697C756.139 19.6368 756.179 19.5898 756.203 19.5347C756.228 19.4796 756.235 19.4186 756.225 19.3594C756.214 19.3002 756.187 19.2452 756.145 19.2012L753.436 16.351ZM740.136 14.3037H752.976C753.062 14.3037 753.148 14.2864 753.227 14.2526C753.306 14.2189 753.377 14.1695 753.436 14.1076L756.145 11.2574C756.187 11.2134 756.214 11.1585 756.225 11.0992C756.235 11.04 756.228 10.979 756.203 10.9239C756.179 10.8688 756.139 10.8219 756.087 10.7889C756.036 10.7559 755.976 10.7384 755.915 10.7384H743.076C742.99 10.7385 742.904 10.756 742.826 10.7897C742.747 10.8234 742.676 10.8727 742.617 10.9345L739.907 13.7847C739.865 13.8286 739.837 13.8835 739.827 13.9427C739.817 14.0018 739.824 14.0627 739.848 14.1178C739.873 14.1729 739.913 14.2199 739.964 14.2529C740.015 14.2859 740.075 14.3035 740.136 14.3037Z" fill="url(#paint0_linear_147_2218)"/>
<path d="M729.781 58.072C729.301 58.072 728.842 58 728.404 57.856C727.966 57.706 727.621 57.514 727.369 57.28L727.702 56.578C727.942 56.788 728.248 56.962 728.62 57.1C728.992 57.238 729.379 57.307 729.781 57.307C730.147 57.307 730.444 57.265 730.672 57.181C730.9 57.097 731.068 56.983 731.176 56.839C731.284 56.689 731.338 56.521 731.338 56.335C731.338 56.119 731.266 55.945 731.122 55.813C730.984 55.681 730.801 55.576 730.573 55.498C730.351 55.414 730.105 55.342 729.835 55.282C729.565 55.222 729.292 55.153 729.016 55.075C728.746 54.991 728.497 54.886 728.269 54.76C728.047 54.634 727.867 54.466 727.729 54.256C727.591 54.04 727.522 53.764 727.522 53.428C727.522 53.104 727.606 52.807 727.774 52.537C727.948 52.261 728.212 52.042 728.566 51.88C728.926 51.712 729.382 51.628 729.934 51.628C730.3 51.628 730.663 51.676 731.023 51.772C731.383 51.868 731.695 52.006 731.959 52.186L731.662 52.906C731.392 52.726 731.107 52.597 730.807 52.519C730.507 52.435 730.216 52.393 729.934 52.393C729.58 52.393 729.289 52.438 729.061 52.528C728.833 52.618 728.665 52.738 728.557 52.888C728.455 53.038 728.404 53.206 728.404 53.392C728.404 53.614 728.473 53.791 728.611 53.923C728.755 54.055 728.938 54.16 729.16 54.238C729.388 54.316 729.637 54.388 729.907 54.454C730.177 54.514 730.447 54.583 730.717 54.661C730.993 54.739 731.242 54.841 731.464 54.967C731.692 55.093 731.875 55.261 732.013 55.471C732.151 55.681 732.22 55.951 732.22 56.281C732.22 56.599 732.133 56.896 731.959 57.172C731.785 57.442 731.515 57.661 731.149 57.829C730.789 57.991 730.333 58.072 729.781 58.072ZM736.879 58.072C736.399 58.072 735.952 57.991 735.538 57.829C735.13 57.667 734.776 57.442 734.476 57.154C734.176 56.86 733.942 56.518 733.774 56.128C733.606 55.738 733.522 55.312 733.522 54.85C733.522 54.388 733.606 53.962 733.774 53.572C733.942 53.182 734.176 52.843 734.476 52.555C734.776 52.261 735.13 52.033 735.538 51.871C735.946 51.709 736.393 51.628 736.879 51.628C737.359 51.628 737.8 51.709 738.202 51.871C738.61 52.027 738.964 52.252 739.264 52.546C739.57 52.834 739.804 53.173 739.966 53.563C740.134 53.953 740.218 54.382 740.218 54.85C740.218 55.318 740.134 55.747 739.966 56.137C739.804 56.527 739.57 56.869 739.264 57.163C738.964 57.451 738.61 57.676 738.202 57.838C737.8 57.994 737.359 58.072 736.879 58.072ZM736.879 57.271C737.227 57.271 737.548 57.211 737.842 57.091C738.142 56.971 738.4 56.803 738.616 56.587C738.838 56.365 739.009 56.107 739.129 55.813C739.255 55.519 739.318 55.198 739.318 54.85C739.318 54.502 739.255 54.181 739.129 53.887C739.009 53.593 738.838 53.338 738.616 53.122C738.4 52.9 738.142 52.729 737.842 52.609C737.548 52.489 737.227 52.429 736.879 52.429C736.525 52.429 736.198 52.489 735.898 52.609C735.604 52.729 735.346 52.9 735.124 53.122C734.902 53.338 734.728 53.593 734.602 53.887C734.482 54.181 734.422 54.502 734.422 54.85C734.422 55.198 734.482 55.519 734.602 55.813C734.728 56.107 734.902 56.365 735.124 56.587C735.346 56.803 735.604 56.971 735.898 57.091C736.198 57.211 736.525 57.271 736.879 57.271ZM742.093 58V51.7H742.993V57.217H746.404V58H742.093ZM746.983 58L749.836 51.7H750.727L753.589 58H752.644L750.097 52.204H750.457L747.91 58H746.983ZM748.198 56.425L748.441 55.705H751.987L752.248 56.425H748.198ZM755.029 58V51.7H755.767L759.934 56.875H759.547V51.7H760.447V58H759.709L755.542 52.825H755.929V58H755.029ZM761.879 58L764.732 51.7H765.623L768.485 58H767.54L764.993 52.204H765.353L762.806 58H761.879ZM763.094 56.425L763.337 55.705H766.883L767.144 56.425H763.094Z" fill="white"/>
<defs>
<linearGradient id="paint0_linear_147_2218" x1="741.207" y1="25.48" x2="754.386" y2="10.3383" gradientUnits="userSpaceOnUse">
<stop offset="0.08" stop-color="#9945FF"/>
<stop offset="0.3" stop-color="#8752F3"/>
<stop offset="0.5" stop-color="#5497D5"/>
<stop offset="0.6" stop-color="#43B4CA"/>
<stop offset="0.72" stop-color="#28E0B9"/>
<stop offset="0.97" stop-color="#19FB9B"/>
</linearGradient>
</defs>
</svg>
