<svg width="36" height="35" viewBox="0 0 36 35" fill="none" xmlns="http://www.w3.org/2000/svg">
<path d="M34.0119 23.8745C34.0127 24.7063 33.7943 25.5237 33.3788 26.2442C32.9632 26.9648 32.3651 27.5632 31.6447 27.9791L20.519 34.3705C19.8013 34.7829 18.9879 35 18.1601 35C17.3323 35 16.519 34.7829 15.8012 34.3705L4.67552 27.9791C3.95513 27.5632 3.35704 26.9648 2.94148 26.2442C2.52591 25.5237 2.30754 24.7063 2.30835 23.8745V11.1249C2.30754 10.293 2.52591 9.47567 2.94148 8.75508C3.35704 8.03449 3.95513 7.43611 4.67552 7.02019L15.8012 0.628829C16.5187 0.216811 17.3316 0 18.1589 0C18.9863 0 19.7992 0.216811 20.5166 0.628829L31.6423 7.02019C32.3627 7.43611 32.9608 8.03449 33.3764 8.75508C33.792 9.47567 34.0103 10.293 34.0095 11.1249L34.0119 23.8745Z" fill="#1D86CC"/>
<path d="M16.7848 2.40558L5.80108 8.75197C5.38508 8.99187 5.03933 9.33675 4.7984 9.75216C4.55746 10.1676 4.42978 10.6389 4.42812 11.1191V23.8214C4.42978 24.3013 4.5572 24.7724 4.79768 25.1878C5.03817 25.6031 5.38331 25.9482 5.79871 26.1886L16.7966 32.5444C17.2137 32.7863 17.6873 32.9138 18.1696 32.9138C18.6518 32.9138 19.1254 32.7863 19.5425 32.5444L30.5262 26.2028C30.942 25.9627 31.2876 25.6177 31.5286 25.2024C31.7695 24.787 31.8972 24.3158 31.8991 23.8356V11.1333C31.8972 10.6532 31.7695 10.1819 31.5286 9.76654C31.2876 9.35118 30.942 9.00625 30.5262 8.76617L19.5307 2.40795C19.1132 2.16718 18.6397 2.04043 18.1577 2.04043C17.6758 2.04043 17.2023 2.16718 16.7848 2.40795V2.40558Z" fill="white"/>
<path d="M13.1587 28.2716C13.1744 28.1848 13.2119 28.1033 13.2676 28.0349C16.5533 22.4594 19.8397 16.8847 23.1269 11.3108C23.1719 11.2327 23.2145 11.1546 23.2524 11.086C23.224 11.0339 23.1908 11.0457 23.1624 11.0457C21.7587 11.0457 20.3549 11.0599 18.9488 11.0457C18.8887 11.0442 18.8295 11.0613 18.7795 11.0948C18.7294 11.1283 18.691 11.1765 18.6695 11.2327C17.6138 12.9986 16.5533 14.7567 15.488 16.5068C13.2392 20.2185 10.9896 23.9302 8.73924 27.642C8.7203 27.6751 8.699 27.7059 8.68006 27.7414C8.64218 27.8171 8.59484 27.829 8.51436 27.784C8.16638 27.5757 7.8042 27.3768 7.44203 27.1638L17.4552 11.1073C17.4339 11.041 17.3889 11.0576 17.3557 11.0576C16.8184 11.041 16.281 11.0173 15.7461 11.0126C14.9933 10.9907 14.2432 11.1112 13.5351 11.3677C12.8907 11.6056 12.343 12.05 11.9775 12.6317C10.1469 15.4865 8.3092 18.3358 6.46438 21.1796L6.3768 21.3145C6.27028 21.3145 6.28685 21.2269 6.27738 21.1654C6.27032 21.074 6.27032 20.9822 6.27738 20.8908C6.27738 17.7424 6.27738 14.5965 6.27738 11.4505C6.26022 11.1792 6.32509 10.9091 6.46357 10.6752C6.60205 10.4413 6.80771 10.2545 7.05381 10.1391C9.47306 8.76139 11.8757 7.35293 14.2879 5.95866C15.3649 5.33846 16.4444 4.723 17.512 4.08623C17.7136 3.95208 17.9504 3.88051 18.1925 3.88051C18.4347 3.88051 18.6715 3.95208 18.8731 4.08623C20.8379 5.23904 22.8192 6.36582 24.791 7.50206L29.2626 10.0728C29.3691 10.132 29.4733 10.1983 29.5798 10.2574C29.7545 10.3499 29.8991 10.4904 29.9964 10.6624C30.0937 10.8344 30.1397 11.0307 30.129 11.228C30.129 14.6509 30.129 18.0738 30.129 21.4968C30.1335 21.5767 30.1239 21.6569 30.1006 21.7335C29.9822 21.8471 29.9396 21.7193 29.897 21.6577C29.7195 21.4092 29.5609 21.1464 29.3952 20.8884C28.0743 18.8195 26.7487 16.7538 25.4183 14.6912C24.9709 13.9952 24.5188 13.2993 24.0761 12.6009C23.972 12.4376 23.9554 12.4352 23.8394 12.6009C23.1719 13.7309 22.5051 14.86 21.8392 15.9884C21.8024 16.0511 21.7865 16.1238 21.7937 16.1961C21.801 16.2685 21.831 16.3366 21.8794 16.3908C22.4286 17.2761 22.9809 18.163 23.5364 19.0515L26.3439 23.5917C26.7226 24.2056 27.1022 24.8187 27.4825 25.431C27.5524 25.514 27.5917 25.6185 27.5938 25.7269C27.518 25.876 27.357 25.9187 27.2268 25.9873C27.0094 26.1444 26.7702 26.2688 26.5167 26.3566C26.3818 26.3234 26.3321 26.2003 26.2681 26.0986C25.3994 24.7445 24.5425 23.381 23.6785 22.0223C22.7908 20.6257 21.9078 19.2243 21.0154 17.83C20.9018 17.6501 20.8828 17.6501 20.7787 17.83C20.0046 19.1343 19.24 20.4458 18.4612 21.7501C18.4217 21.8111 18.4023 21.8829 18.4057 21.9555C18.4091 22.0281 18.4351 22.0978 18.4801 22.1549C19.5288 23.7693 20.5514 25.3979 21.5882 27.0194C21.877 27.4715 22.1682 27.9237 22.4523 28.3781C22.5067 28.4681 22.5825 28.5557 22.5327 28.674C22.2613 28.8865 21.9676 29.0691 21.6569 29.2185L18.7429 30.9276C18.5883 31.0294 18.4072 31.0837 18.2221 31.0837C18.037 31.0837 17.856 31.0294 17.7013 30.9276C16.281 30.1022 14.8505 29.2808 13.4097 28.4634C13.3102 28.4234 13.2235 28.3571 13.1587 28.2716Z" fill="#2D374B"/>
<path d="M30.0452 21.7808C30.0452 21.6955 30.0452 21.6103 30.0452 21.5275C30.0452 18.1124 30.0452 14.6974 30.0452 11.2824C30.0577 11.0754 30.0094 10.8692 29.9064 10.6893C29.8034 10.5093 29.6501 10.3633 29.4653 10.2692C25.8798 8.21766 22.2959 6.15743 18.7136 4.08852C18.5521 3.98416 18.3638 3.92865 18.1715 3.92865C17.9792 3.92865 17.791 3.98416 17.6294 4.08852C15.6473 5.24212 13.6597 6.39809 11.6665 7.55643L6.86827 10.3236C6.69671 10.4126 6.55464 10.5494 6.45926 10.7174C6.36389 10.8855 6.31931 11.0776 6.33092 11.2705C6.34039 14.5467 6.34512 17.8228 6.34512 21.099C6.34512 21.1724 6.31672 21.2529 6.38063 21.3168C6.00188 21.9488 5.58526 22.5548 5.18521 23.1727C4.98636 23.4883 4.78594 23.796 4.58395 24.0958C4.55081 24.1456 4.5153 24.1905 4.45138 24.2805C4.45138 24.1763 4.45138 24.1195 4.45138 24.0627C4.45138 19.7434 4.45138 15.4225 4.45138 11.1001C4.43775 10.6199 4.55724 10.1452 4.79663 9.72869C5.03602 9.31216 5.38597 8.96998 5.80777 8.74001C7.19967 7.91387 8.60814 7.1185 10.0071 6.30893C11.1907 5.62481 12.3743 4.93597 13.5579 4.24949C14.6586 3.61035 15.7475 2.95228 16.8719 2.35575C17.3007 2.11705 17.7857 1.99792 18.2762 2.01083C18.7668 2.02374 19.2449 2.16821 19.6605 2.42913C20.56 2.93808 21.4548 3.45885 22.3519 3.9749L24.8659 5.42597L29.5126 8.09614C29.8535 8.29025 30.192 8.48672 30.5281 8.68557C30.9002 8.89565 31.22 9.18695 31.4639 9.53778C31.7078 9.88861 31.8693 10.2899 31.9366 10.7119C31.9532 10.8334 31.958 10.9563 31.9508 11.0788C31.9508 15.3302 31.9508 19.5824 31.9508 23.8355C31.9546 24.2413 31.8683 24.643 31.698 25.0114C31.5277 25.3798 31.2777 25.7059 30.9661 25.9659C30.7885 26.1001 30.5982 26.2167 30.3979 26.3139C29.2443 26.9862 28.0907 27.6553 26.9371 28.3213L23.2515 30.4517C22.071 31.1366 20.8874 31.8231 19.7007 32.5111C19.4077 32.709 19.0775 32.8451 18.7302 32.9112C18.1534 33.0238 17.5557 32.9474 17.0258 32.6934C16.4387 32.3786 15.8659 32.0377 15.2883 31.7063L12.9543 30.3641L12.2962 29.9877C12.2157 29.9404 12.1613 29.8954 12.2228 29.7889C12.514 29.3036 12.8004 28.8136 13.0892 28.326C13.0892 28.307 13.1247 28.2999 13.1436 28.2857C13.4134 28.4116 13.6744 28.5555 13.9248 28.7166C15.1952 29.4409 16.4624 30.17 17.7265 30.9038C17.8718 30.9976 18.0411 31.0475 18.2141 31.0475C18.3871 31.0475 18.5564 30.9976 18.7018 30.9038C19.9043 30.1937 21.1115 29.5025 22.3164 28.8042L22.4987 28.7047C22.6124 28.5599 22.764 28.4493 22.9366 28.3852C24.0255 27.7626 25.1073 27.1258 26.1962 26.4914C26.2862 26.4394 26.369 26.3589 26.4874 26.3731L27.5526 25.7552C27.6189 25.6179 27.7586 25.5753 27.8745 25.5185C28.4095 25.2084 28.9421 24.8912 29.4842 24.5906C29.6407 24.5081 29.7701 24.3824 29.857 24.2283C29.9439 24.0742 29.9846 23.8984 29.9742 23.7218C29.9742 23.1774 29.9742 22.6353 29.9742 22.0909C29.9638 22.0371 29.9647 21.9817 29.977 21.9283C29.9892 21.8749 30.0124 21.8246 30.0452 21.7808Z" fill="#96BEDC"/>
<path d="M30.048 21.7783C30.048 22.4529 30.0645 23.1299 30.048 23.8022C30.0516 23.9599 30.0118 24.1155 29.9329 24.252C29.8539 24.3885 29.739 24.5007 29.6006 24.5763C28.9212 24.9597 28.2536 25.3669 27.5695 25.7409C27.2973 25.2438 26.9825 24.7704 26.6842 24.2875C25.1377 21.7798 23.5895 19.2746 22.0398 16.7717C21.9475 16.6226 21.8623 16.4663 21.7581 16.3243C21.7257 16.2827 21.7081 16.2315 21.7081 16.1787C21.7081 16.126 21.7257 16.0747 21.7581 16.0331C22.1298 15.4153 22.4919 14.7927 22.8589 14.1725L23.8744 12.4469C23.8933 12.4064 23.9249 12.3732 23.9643 12.3522C24.1427 12.6252 24.3202 12.8998 24.4969 13.176C25.5669 14.8393 26.6361 16.5042 27.7045 18.1707L29.8799 21.5581C29.9197 21.6426 29.9769 21.7176 30.048 21.7783Z" fill="#28A0F0"/>
<path d="M26.5016 26.3581C26.0613 26.6469 25.5926 26.8931 25.1381 27.1629C24.3119 27.6364 23.4811 28.124 22.6549 28.6045L22.5153 28.6803C22.5031 28.6043 22.4704 28.5331 22.4206 28.4743C21.682 27.316 20.945 26.1577 20.2096 24.9993L18.3869 22.1587C18.3453 22.1097 18.3211 22.0482 18.3181 21.984C18.3152 21.9198 18.3335 21.8564 18.3703 21.8037C19.1846 20.4323 19.9958 19.0585 20.8038 17.6824C20.8227 17.6516 20.8369 17.6138 20.8843 17.6043C20.9316 17.5948 20.9671 17.6848 20.9979 17.7345L25.4008 24.6703L26.3477 26.1474C26.3882 26.2302 26.4436 26.3048 26.511 26.3676L26.5016 26.3581Z" fill="#28A0F0"/>
</svg>
