<svg width="36" height="35" viewBox="0 0 36 35" fill="none" xmlns="http://www.w3.org/2000/svg">
<path d="M34.75 17.5C34.75 26.7508 27.2508 34.25 18 34.25C8.74923 34.25 1.25 26.7508 1.25 17.5C1.25 8.24923 8.74923 0.75 18 0.75C27.2508 0.75 34.75 8.24923 34.75 17.5Z" fill="#E84142" stroke="#E84142" stroke-width="1.5"/>
<path fill-rule="evenodd" clip-rule="evenodd" d="M13.6974 23.5851H10.8744C10.2811 23.5851 9.98825 23.5851 9.80909 23.4708C9.71457 23.4093 9.63587 23.3264 9.57937 23.2288C9.52287 23.1312 9.49016 23.0217 9.48388 22.9091C9.47323 22.6984 9.61946 22.4409 9.91271 21.9265L16.8834 9.64077C17.1799 9.11917 17.3301 8.85827 17.5195 8.76181C17.6203 8.71071 17.7317 8.68408 17.8447 8.68408C17.9577 8.68408 18.0691 8.71071 18.1699 8.76181C18.3593 8.85866 18.5094 9.11917 18.806 9.64077L20.2393 12.1423L20.2466 12.1551C20.567 12.7148 20.7293 12.9986 20.8004 13.2965C20.8788 13.623 20.8788 13.9634 20.8004 14.2899C20.7289 14.5901 20.568 14.876 20.2428 15.4441L16.582 21.9162L16.5725 21.9329C16.2502 22.4971 16.0868 22.7832 15.8603 22.9982C15.6151 23.2328 15.3173 23.4055 14.9918 23.5018C14.6943 23.5851 14.362 23.5851 13.6974 23.5851ZM20.8263 23.5851H24.8714C25.4681 23.5851 25.7683 23.5851 25.9471 23.4673C26.0422 23.4057 26.1212 23.3224 26.1777 23.2242C26.2343 23.126 26.2667 23.0158 26.2723 22.9027C26.2826 22.6987 26.1392 22.4514 25.8584 21.9668C25.8487 21.9503 25.839 21.9335 25.8292 21.9164L23.803 18.4494L23.7799 18.4107C23.4952 17.9293 23.3515 17.6861 23.1669 17.5921C23.0667 17.541 22.9559 17.5144 22.8435 17.5144C22.7311 17.5144 22.6203 17.541 22.5202 17.5921C22.3342 17.689 22.1843 17.9423 21.8876 18.4533L19.8687 21.9203L19.8618 21.9323C19.5662 22.4425 19.4184 22.6974 19.4291 22.9066C19.4353 23.0196 19.468 23.1296 19.5245 23.2277C19.581 23.3259 19.6597 23.4094 19.7543 23.4716C19.9294 23.5851 20.2296 23.5851 20.8263 23.5851Z" fill="white"/>
</svg>
