<svg width="36" height="35" viewBox="0 0 36 35" fill="none" xmlns="http://www.w3.org/2000/svg">
<path d="M18 35C27.665 35 35.5 27.165 35.5 17.5C35.5 7.83502 27.665 0 18 0C8.33502 0 0.5 7.83502 0.5 17.5C0.5 27.165 8.33502 35 18 35Z" fill="#F2892E"/>
<path d="M25.0999 15.1112C25.3993 13.1524 23.8765 12.0992 21.796 11.3964L22.4711 8.74234L20.8234 8.34048L20.1655 10.9245C19.7326 10.818 19.2883 10.7189 18.8449 10.6198L19.5076 8.019L17.8599 7.61621L17.1848 10.2694C16.8263 10.189 16.4735 10.1105 16.1321 10.0264L16.134 10.018L13.8609 9.46193L13.4223 11.1871C13.4223 11.1871 14.6456 11.4619 14.6199 11.4787C15.2873 11.6422 15.4075 12.0749 15.3874 12.4188L14.6189 15.4421C14.6647 15.4533 14.7238 15.4701 14.7905 15.4953L14.616 15.4533L13.5386 19.6886C13.4566 19.8868 13.2497 20.1849 12.7824 20.0718C12.7996 20.0952 11.5848 19.7793 11.5848 19.7793L10.7667 21.6278L12.9121 22.1521C13.3107 22.2502 13.7016 22.353 14.0859 22.4493L13.4041 25.1333L15.0508 25.5351L15.7259 22.881C16.176 22.9997 16.6127 23.11 17.0399 23.2147L16.3667 25.8576L18.0144 26.2594L18.6961 23.581C21.5071 24.1025 23.6201 23.8922 24.5097 21.4007C25.2267 19.3952 24.4744 18.2373 22.9955 17.4831C24.073 17.2401 24.8835 16.5458 25.0999 15.1112ZM21.3335 20.2867C20.8253 22.2932 17.3784 21.2082 16.2609 20.9363L17.1667 17.3803C18.2842 17.6541 21.8665 18.1952 21.3335 20.2867ZM21.8437 15.0823C21.3793 16.9074 18.5111 15.9794 17.5815 15.7523L18.4015 12.5282C19.3312 12.7553 22.328 13.1786 21.8437 15.0823Z" fill="white"/>
</svg>
