<svg width="35" height="35" viewBox="0 0 35 35" fill="none" xmlns="http://www.w3.org/2000/svg">
<path d="M17.5 35C27.165 35 35 27.165 35 17.5C35 7.83502 27.165 0 17.5 0C7.83502 0 0 7.83502 0 17.5C0 27.165 7.83502 35 17.5 35Z" fill="#F3BA2F"/>
<path d="M21.127 16.0116L17.5014 12.386L13.8739 16.0135L11.7643 13.9039L17.5014 8.16675L23.2366 13.902L21.127 16.0116ZM26.8361 17.5015L24.7265 15.3918L22.6168 17.5015L24.7265 19.6111L26.8361 17.5015ZM21.127 18.9913L17.5014 22.6169L13.8739 18.9894L11.7643 21.0981L17.5014 26.8362L23.2394 21.0981L21.127 18.9913ZM12.386 17.5015L10.2763 15.3918L8.16669 17.5015L10.2763 19.6111L12.386 17.5015ZM15.3619 17.4996H15.36V17.5015L17.5014 19.6428L19.6437 17.5015L19.64 17.4987L19.2657 17.1234L17.5014 15.3601L15.361 17.5005L15.3619 17.4996Z" fill="white"/>
</svg>
