<svg width="35" height="35" viewBox="0 0 35 35" fill="none" xmlns="http://www.w3.org/2000/svg">
<path d="M17.5 35C27.165 35 35 27.165 35 17.5C35 7.83502 27.165 0 17.5 0C7.83502 0 0 7.83502 0 17.5C0 27.165 7.83502 35 17.5 35Z" fill="#627EEA"/>
<path d="M17.4875 6.72266V14.2749L23.8914 17.1271L17.4875 6.72266Z" fill="white" fill-opacity="0.6"/>
<path d="M17.4875 6.72266L11.0834 17.1268L17.4875 14.2749V6.72266Z" fill="white"/>
<path d="M17.4875 22.0207V27.1521L23.8956 18.3154L17.4875 22.0207Z" fill="white" fill-opacity="0.6"/>
<path d="M17.4875 27.1521V22.0207L11.0834 18.3154L17.4875 27.1521Z" fill="white"/>
<path d="M17.4875 20.8332L23.8914 17.1271L17.4875 14.2749V20.8332Z" fill="white" fill-opacity="0.2"/>
<path d="M11.0834 17.1268L17.4875 20.8332V14.2749L11.0834 17.1268Z" fill="white" fill-opacity="0.6"/>
</svg>
