<svg width="601" height="547" viewBox="0 0 601 547" fill="none" xmlns="http://www.w3.org/2000/svg">
<g opacity="0.47" filter="url(#filter0_f_147_2186)">
<ellipse cx="218.5" cy="331.5" rx="118.5" ry="115.5" fill="#064BFB"/>
</g>
<g opacity="0.37" filter="url(#filter1_f_147_2186)">
<ellipse cx="334" cy="240.5" rx="167" ry="140.5" fill="#1DC6C3"/>
</g>
<rect opacity="0.24" x="145.5" y="146.5" width="271" height="346" rx="26.5" fill="#BA62FE" stroke="white"/>
<path d="M205 289.667C206.473 289.667 207.667 288.473 207.667 287C207.667 285.527 206.473 284.333 205 284.333C203.527 284.333 202.333 285.527 202.333 287C202.333 288.473 203.527 289.667 205 289.667ZM246.354 166.354C246.549 166.158 246.549 165.842 246.354 165.646L243.172 162.464C242.976 162.269 242.66 162.269 242.464 162.464C242.269 162.66 242.269 162.976 242.464 163.172L245.293 166L242.464 168.828C242.269 169.024 242.269 169.34 242.464 169.536C242.66 169.731 242.976 169.731 243.172 169.536L246.354 166.354ZM205.5 287V181H204.5V287H205.5ZM220 166.5H246V165.5H220V166.5ZM205.5 181C205.5 172.992 211.992 166.5 220 166.5V165.5C211.44 165.5 204.5 172.44 204.5 181H205.5Z" fill="#F8F0FF"/>
<ellipse cx="215.718" cy="344.162" rx="37.2029" ry="37.1982" fill="#D739FF"/>
<g style="mix-blend-mode:hard-light" opacity="0.41">
<ellipse cx="189.273" cy="327.579" rx="28.6866" ry="28.6829" fill="#27DFDC"/>
</g>
<path d="M207.421 343.36C207.421 343.601 207.485 343.79 207.613 343.926C207.75 344.063 207.938 344.131 208.179 344.131H210.707V346.67C210.707 346.903 210.771 347.092 210.899 347.236C211.028 347.372 211.204 347.441 211.429 347.441C211.654 347.441 211.83 347.372 211.959 347.236C212.095 347.092 212.163 346.903 212.163 346.67V344.131H214.595C214.844 344.131 215.04 344.063 215.185 343.926C215.329 343.79 215.401 343.601 215.401 343.36C215.401 343.144 215.329 342.967 215.185 342.831C215.04 342.694 214.844 342.626 214.595 342.626H212.163V340.087C212.163 339.854 212.095 339.669 211.959 339.533C211.83 339.397 211.654 339.328 211.429 339.328C211.204 339.328 211.028 339.397 210.899 339.533C210.771 339.669 210.707 339.854 210.707 340.087V342.626H208.179C207.938 342.626 207.75 342.694 207.613 342.831C207.485 342.967 207.421 343.144 207.421 343.36ZM224.514 343.108C224.963 343.108 225.344 342.955 225.657 342.65C225.978 342.337 226.139 341.952 226.139 341.495C226.139 341.03 225.978 340.64 225.657 340.327C225.344 340.014 224.963 339.858 224.514 339.858C224.056 339.858 223.667 340.014 223.346 340.327C223.033 340.64 222.877 341.03 222.877 341.495C222.877 341.952 223.033 342.337 223.346 342.65C223.667 342.955 224.056 343.108 224.514 343.108ZM220.842 346.718C221.3 346.718 221.685 346.566 221.998 346.261C222.311 345.948 222.467 345.559 222.467 345.094C222.467 344.636 222.311 344.251 221.998 343.938C221.685 343.625 221.3 343.469 220.842 343.469C220.393 343.469 220.008 343.625 219.687 343.938C219.374 344.251 219.217 344.636 219.217 345.094C219.217 345.559 219.374 345.948 219.687 346.261C220.008 346.566 220.393 346.718 220.842 346.718ZM199.897 352.05C199.897 352.941 200.078 353.719 200.439 354.385C200.808 355.051 201.318 355.565 201.968 355.926C202.626 356.295 203.392 356.48 204.267 356.48C204.925 356.48 205.571 356.331 206.205 356.034C206.839 355.745 207.401 355.3 207.89 354.698L210.117 352.002C210.285 351.794 210.458 351.645 210.635 351.557C210.819 351.469 211.004 351.424 211.188 351.424H222.925C223.117 351.424 223.302 351.469 223.478 351.557C223.655 351.645 223.832 351.794 224.008 352.002L226.235 354.698C226.725 355.3 227.286 355.745 227.92 356.034C228.554 356.331 229.2 356.48 229.858 356.48C230.733 356.48 231.495 356.295 232.145 355.926C232.803 355.565 233.313 355.051 233.674 354.385C234.043 353.719 234.228 352.941 234.228 352.05C234.228 351.473 234.16 350.847 234.023 350.173C233.887 349.491 233.702 348.757 233.469 347.97C233.229 347.144 232.932 346.245 232.579 345.274C232.226 344.303 231.844 343.324 231.435 342.337C231.026 341.342 230.617 340.404 230.207 339.521C229.87 338.823 229.557 338.245 229.268 337.788C228.98 337.331 228.61 336.961 228.161 336.681C227.712 336.392 227.082 336.155 226.271 335.97C225.108 335.706 223.747 335.497 222.19 335.345C220.642 335.192 218.932 335.116 217.063 335.116C215.201 335.116 213.491 335.192 211.935 335.345C210.378 335.497 209.018 335.706 207.854 335.97C207.043 336.155 206.413 336.392 205.964 336.681C205.515 336.961 205.146 337.331 204.857 337.788C204.568 338.245 204.255 338.823 203.918 339.521C203.5 340.404 203.087 341.342 202.678 342.337C202.277 343.324 201.899 344.303 201.546 345.274C201.193 346.245 200.896 347.144 200.656 347.97C200.415 348.757 200.226 349.491 200.09 350.173C199.961 350.847 199.897 351.473 199.897 352.05ZM201.318 352.123C201.318 351.737 201.362 351.292 201.45 350.787C201.538 350.281 201.699 349.639 201.932 348.861C202.188 348.002 202.497 347.063 202.858 346.044C203.228 345.025 203.621 343.998 204.038 342.963C204.463 341.92 204.881 340.941 205.29 340.027C205.491 339.593 205.687 339.208 205.88 338.871C206.072 338.534 206.325 338.245 206.638 338.005C206.959 337.764 207.405 337.579 207.974 337.451C209.09 337.194 210.418 336.989 211.959 336.837C213.507 336.677 215.209 336.596 217.063 336.596C218.916 336.596 220.614 336.677 222.154 336.837C223.703 336.989 225.035 337.194 226.151 337.451C226.721 337.587 227.162 337.776 227.475 338.017C227.788 338.249 228.041 338.534 228.233 338.871C228.426 339.208 228.622 339.593 228.823 340.027C229.248 340.941 229.67 341.92 230.087 342.963C230.504 343.998 230.893 345.025 231.255 346.044C231.616 347.063 231.929 348.002 232.194 348.861C232.418 349.639 232.575 350.281 232.663 350.787C232.759 351.292 232.807 351.737 232.807 352.123C232.807 353.013 232.531 353.723 231.977 354.253C231.431 354.782 230.729 355.047 229.87 355.047C228.883 355.047 228 354.578 227.222 353.639L224.947 350.907C224.674 350.578 224.393 350.337 224.104 350.185C223.815 350.024 223.438 349.944 222.973 349.944H211.152C210.679 349.944 210.298 350.024 210.009 350.185C209.728 350.337 209.451 350.578 209.178 350.907L206.903 353.639C206.526 354.096 206.109 354.445 205.651 354.686C205.202 354.927 204.732 355.047 204.243 355.047C203.392 355.047 202.69 354.782 202.136 354.253C201.59 353.723 201.318 353.013 201.318 352.123Z" fill="white"/>
<path d="M259.624 128.555C259.624 125.853 261.179 123.392 263.62 122.232L308.914 100.718C310.814 99.8157 313.02 99.8157 314.921 100.718L360.214 122.232C362.655 123.392 364.211 125.853 364.211 128.555V182.631C364.211 185.334 362.655 187.795 360.214 188.954L314.921 210.468C313.02 211.371 310.814 211.371 308.914 210.468L263.62 188.954C261.179 187.795 259.624 185.334 259.624 182.631V128.555Z" fill="#4E5FFF"/>
<path fill-rule="evenodd" clip-rule="evenodd" d="M327.028 136.611C327.028 133.27 323.814 130.869 320.61 131.817L296.106 139.064C294.788 139.498 293.904 140.136 293.284 140.941C292.785 141.588 292.423 142.387 292.168 143.367C293.384 142.348 294.951 141.734 296.661 141.734H326.629C326.763 141.734 326.896 141.738 327.028 141.745V136.611ZM289.661 155.404H289.661V169.204C289.661 173.07 292.795 176.204 296.661 176.204H326.629C330.495 176.204 333.629 173.07 333.629 169.204V148.734C333.629 145.711 331.712 143.135 329.028 142.156V136.611C329.028 131.934 324.528 128.572 320.043 129.899L295.524 137.15L295.51 137.154L295.496 137.159C293.845 137.7 292.6 138.551 291.7 139.72C290.809 140.876 290.307 142.275 290.018 143.829C289.577 146.206 289.607 149.167 289.641 152.515C289.651 153.449 289.661 154.414 289.661 155.404ZM296.661 143.734C293.9 143.734 291.661 145.973 291.661 148.734V169.204C291.661 171.965 293.9 174.204 296.661 174.204H326.629C329.391 174.204 331.629 171.965 331.629 169.204V148.734C331.629 145.973 329.391 143.734 326.629 143.734H296.661ZM321.998 161.928C323.627 161.928 324.947 160.603 324.947 158.968C324.947 157.334 323.627 156.009 321.998 156.009C320.369 156.009 319.049 157.334 319.049 158.968C319.049 160.603 320.369 161.928 321.998 161.928Z" fill="white"/>
<path d="M349.483 214.851C348.01 214.851 346.816 216.045 346.816 217.517C346.816 218.99 348.01 220.184 349.483 220.184C350.956 220.184 352.15 218.99 352.15 217.517C352.15 216.045 350.956 214.851 349.483 214.851ZM349.129 327.698C349.325 327.894 349.641 327.894 349.836 327.698L353.018 324.516C353.214 324.321 353.214 324.005 353.018 323.809C352.823 323.614 352.507 323.614 352.311 323.809L349.483 326.638L346.654 323.809C346.459 323.614 346.143 323.614 345.947 323.809C345.752 324.005 345.752 324.321 345.947 324.516L349.129 327.698ZM348.983 217.517L348.983 327.345L349.983 327.345L349.983 217.517L348.983 217.517Z" fill="#F8F0FF"/>
<rect x="326.957" y="397.749" width="178.043" height="35.7839" rx="17.892" fill="#1CE5C3"/>
<g style="mix-blend-mode:color-dodge">
<rect x="316" y="404.458" width="182.152" height="38.0204" rx="19.0102" fill="#BA62FE"/>
</g>
<ellipse cx="397.102" cy="418.853" rx="2.15557" ry="1.76002" fill="#4606FB"/>
<rect x="404.587" y="417.86" width="18.0284" height="1.98402" rx="0.992011" fill="#4606FB"/>
<rect x="448.169" y="417.86" width="18.0284" height="1.98402" rx="0.992011" fill="#4606FB"/>
<rect x="426.576" y="417.86" width="18.0284" height="1.98402" rx="0.992011" fill="#4606FB"/>
<path d="M352.623 419.296L359.892 421.703V419.878L352.834 417.65V418.836L359.892 416.616V414.812L352.623 417.219V419.296Z" fill="#4606FB"/>
<path d="M367.093 412.046H364.884L362.825 424.973H365.034L367.093 412.046Z" fill="#4606FB"/>
<path d="M377.304 417.219L370.035 415.085V416.925L377.155 418.894V417.658L370.035 419.619V421.43L377.304 419.296V417.219Z" fill="#4606FB"/>
<rect x="326.957" y="342" width="178.043" height="35.7839" rx="17.892" fill="#1CE5C3"/>
<g style="mix-blend-mode:color-dodge">
<rect x="316" y="348.71" width="182.152" height="38.0204" rx="19.0102" fill="#BA62FE"/>
</g>
<ellipse cx="397.102" cy="363.104" rx="2.15557" ry="1.76002" fill="#4606FB"/>
<rect x="404.587" y="362.112" width="18.0284" height="1.98402" rx="0.992011" fill="#4606FB"/>
<rect x="448.169" y="362.112" width="18.0284" height="1.98402" rx="0.992011" fill="#4606FB"/>
<rect x="426.576" y="362.112" width="18.0284" height="1.98402" rx="0.992011" fill="#4606FB"/>
<path d="M352.623 363.547L359.892 365.954V364.129L352.834 361.902V363.087L359.892 360.867V359.063L352.623 361.471V363.547Z" fill="#4606FB"/>
<path d="M367.093 356.297H364.884L362.825 369.224H365.034L367.093 356.297Z" fill="#4606FB"/>
<path d="M377.304 361.471L370.035 359.336V361.176L377.155 363.145V361.909L370.035 363.871V365.681L377.304 363.547V361.471Z" fill="#4606FB"/>
<defs>
<filter id="filter0_f_147_2186" x="0" y="116" width="437" height="431" filterUnits="userSpaceOnUse" color-interpolation-filters="sRGB">
<feFlood flood-opacity="0" result="BackgroundImageFix"/>
<feBlend mode="normal" in="SourceGraphic" in2="BackgroundImageFix" result="shape"/>
<feGaussianBlur stdDeviation="50" result="effect1_foregroundBlur_147_2186"/>
</filter>
<filter id="filter1_f_147_2186" x="67" y="0" width="534" height="481" filterUnits="userSpaceOnUse" color-interpolation-filters="sRGB">
<feFlood flood-opacity="0" result="BackgroundImageFix"/>
<feBlend mode="normal" in="SourceGraphic" in2="BackgroundImageFix" result="shape"/>
<feGaussianBlur stdDeviation="50" result="effect1_foregroundBlur_147_2186"/>
</filter>
</defs>
</svg>
