<svg width="84" height="30" viewBox="0 0 84 30" fill="none" xmlns="http://www.w3.org/2000/svg">
<path d="M4.62618 4.24877C4.60361 4.27161 4.58105 4.29445 4.55849 4.31728C2.27259 6.66018 0.894277 9.56985 0.42356 12.5958C0.303573 13.365 0.242041 14.1415 0.23999 14.9179V15.0072C0.242041 15.7536 0.298445 16.4999 0.408177 17.239C0.751729 19.5425 1.62035 21.7816 3.01302 23.757C3.47348 24.4099 3.99137 25.0348 4.56464 25.6234C4.58515 25.6442 4.60566 25.6639 4.62618 25.6847C5.87219 26.9469 7.26383 27.9175 8.74162 28.6141C14.1841 31.1739 20.809 29.9864 25.7644 25.7189C25.7767 25.7075 25.79 25.6961 25.8033 25.6847C31.3976 20.839 36.5314 16.4501 42.0569 16.4501C47.5815 16.4501 52.7153 20.839 58.3095 25.6847C59.8293 26.9999 61.5061 28.0255 63.2587 28.7407C65.5528 29.6781 67.9761 30.084 70.3441 29.9158C73.674 29.6801 76.8931 28.3099 79.4877 25.6847C79.5082 25.6639 79.5277 25.6442 79.5472 25.6234C80.1225 25.0348 80.6404 24.4099 81.1009 23.757C82.4935 21.7816 83.3621 19.5425 83.7047 17.239C83.9344 15.7017 83.9293 14.1332 83.6903 12.5958C83.2196 9.56985 81.8403 6.66018 79.5554 4.31728C79.5318 4.29445 79.5103 4.27057 79.4867 4.24877C76.8931 1.62352 73.674 0.263667 70.3441 0.035294C67.9731 -0.127681 65.5467 0.28339 63.2515 1.21764C61.502 1.93183 59.8263 2.94808 58.3095 4.24877C52.6937 9.06432 47.6091 13.4844 42.0569 13.4844C36.5047 13.4844 31.4202 9.06432 25.8033 4.24877C25.7931 4.23943 25.7839 4.23112 25.7736 4.22282C22.5565 1.47612 18.6328 0 14.7871 0C12.7063 0 10.6491 0.431832 8.73752 1.32664C7.26076 2.01902 5.87117 2.98753 4.62618 4.24877Z" fill="url(#paint0_radial_1024_53017)"/>
<defs>
<radialGradient id="paint0_radial_1024_53017" cx="0" cy="0" r="1" gradientUnits="userSpaceOnUse" gradientTransform="translate(-1.77798 8.30811) scale(95.7637 52.6366)">
<stop stop-color="#1CE5C3"/>
<stop offset="0.10253" stop-color="#1CE5C3"/>
<stop offset="0.474728" stop-color="#5440D7"/>
<stop offset="0.630807" stop-color="#8B2CE4"/>
<stop offset="0.795714" stop-color="#D421EB"/>
<stop offset="1" stop-color="#AC39FD"/>
</radialGradient>
</defs>
</svg>
