<svg viewBox="0 0 438 60" fill="none" xmlns="http://www.w3.org/2000/svg" class="h-6"><path d="M187.359 22.155 178.904.756h-13.048l15.097 36.577 6.406-15.178ZM73.072 44.272 89.24.756H77.004L66.537 32.397 56.07.757H43.569L59.66 44.271h13.412ZM239.543.045c-3.196 0-8.6.824-12.926 5.337V.77h-8.631v43.5h8.714V19.985c0-6.833 4.79-11.61 11.659-11.61 6.869 0 10.907 4.165 10.907 11.429V44.27h8.668V17.672c0-9.494-6.391-17.62-18.399-17.62l.008-.007ZM299.757 5.601c-3.583-3.59-8.478-5.548-14.11-5.548-12.441 0-21.823 9.592-21.823 22.45 0 12.857 9.382 22.487 21.823 22.487 5.662 0 10.641-1.98 14.11-5.526v4.815h8.668V.771h-8.668v4.83Zm-13.321 31.263c-9.731 0-13.807-8.126-13.807-14.362 0-8.291 5.807-14.316 13.807-14.316s13.716 6.024 13.716 14.316c0 8.292-5.769 14.362-13.716 14.362ZM370.62.045c-6.778 0-12.372 2.76-15.643 7.635-3.166-4.876-8.737-7.635-15.591-7.635-3.681 0-8.721 1.051-12.926 5.216V.77h-8.63v43.5h8.713V19.985c0-6.833 4.79-11.61 11.659-11.61 6.869 0 10.907 4.165 10.907 11.429V44.27h8.668V19.985c0-6.833 4.79-11.61 11.659-11.61 4.934 0 10.953 2.215 10.953 11.429V44.27h8.668V17.672c0-10.537-7.408-17.62-18.437-17.62V.046ZM437.225 22.472C437.126 7.823 427.054.053 416.632.053c-12.569 0-21.685 9.509-21.685 22.6 0 13.092 9.078 22.33 22.08 22.33 7.309 0 13.177-2.435 18.338-7.71l-4.645-5.836c-3.583 3.666-7.757 5.692-13.291 5.692-7.218 0-12.288-4.097-13.48-11.142h33.025c.205-1.633.251-2.237.251-3.515Zm-33.139-3.893c1.366-6.56 6.041-10.59 12.417-10.59 7.272 0 10.847 5.36 11.758 10.59h-24.183.008ZM150.327 6.584V.756h-11.705v43.516h11.705V23.22c0-9.033 4.668-10.915 10.489-10.915h2.68V.756c-5.329 0-10.278 2.237-13.169 5.828ZM132.375 21.875c0-14.4-9.465-21.852-20.486-21.852-12.919 0-21.936 9.796-21.936 22.97 0 13.175 9.928 22.11 23.431 22.11 5.982 0 12.752-2.442 17.079-6.433l-5.549-7.762c-3.256 2.66-6.3 3.983-10.3 3.983-6.808 0-11.651-3.34-13.192-8.829h30.642c.236-1.247.311-2.645.311-4.202v.015Zm-31.15-3.863c1.078-5.08 4.478-7.997 10.512-7.997 5.177 0 9.101 3.228 9.435 7.997h-19.955.008ZM42.422 21.874c0-14.4-9.465-21.852-20.486-21.852C9.025.022 0 9.818 0 22.992c0 13.176 9.928 22.11 23.431 22.11 5.982 0 12.752-2.441 17.079-6.432l-5.549-7.763c-3.256 2.66-6.3 3.983-10.3 3.983-6.809 0-11.651-3.34-13.192-8.828h30.642c.235-1.248.311-2.646.311-4.203v.015Zm-31.15-3.862c1.078-5.08 4.478-7.998 10.512-7.998 5.177 0 9.101 3.228 9.435 7.998H11.272ZM188.012 59.502 213.129 0h-12.418l-25.116 59.502h12.417Z" fill="#000"></path></svg>