<svg width="83" height="38" viewBox="0 0 83 38" fill="none" xmlns="http://www.w3.org/2000/svg">
<path d="M82.4066 22.4066C82.6311 22.182 82.6311 21.818 82.4066 21.5934L78.7473 17.9341C78.5228 17.7096 78.1587 17.7096 77.9341 17.9341C77.7096 18.1587 77.7096 18.5228 77.9341 18.7473L81.1868 22L77.9341 25.2527C77.7096 25.4772 77.7096 25.8413 77.9341 26.0659C78.1587 26.2904 78.5228 26.2904 78.7473 26.0659L82.4066 22.4066ZM48 22.575L82 22.575L82 21.425L48 21.425L48 22.575Z" fill="#9742FB"/>
<circle cx="22" cy="14" r="14" fill="#D8FEFE"/>
<path d="M3.79492 26.5864H20.9663C21.9396 26.5864 22.6733 26.3431 23.1675 25.8564C23.6616 25.3698 23.9087 24.6473 23.9087 23.689V11.6724C23.9087 10.7065 23.6616 9.98031 23.1675 9.49365C22.6733 8.99951 21.9396 8.75244 20.9663 8.75244H3.79492C2.8291 8.75244 2.09912 8.99951 1.60498 9.49365C1.11084 9.98779 0.86377 10.714 0.86377 11.6724V23.689C0.86377 24.6473 1.11084 25.3698 1.60498 25.8564C2.09912 26.3431 2.8291 26.5864 3.79492 26.5864ZM3.82861 25.2725C3.28206 25.2725 2.87028 25.134 2.59326 24.8569C2.31624 24.5799 2.17773 24.1644 2.17773 23.6104V11.7397C2.17773 11.1932 2.31624 10.7777 2.59326 10.4932C2.87028 10.2012 3.28206 10.0552 3.82861 10.0552H20.9551C21.4867 10.0552 21.891 10.2012 22.168 10.4932C22.4525 10.7777 22.5947 11.1932 22.5947 11.7397V23.6104C22.5947 24.1494 22.4525 24.5612 22.168 24.8457C21.891 25.1302 21.4867 25.2725 20.9551 25.2725H3.82861ZM23.1113 23.4307L17.1592 17.894C16.9271 17.6994 16.6838 17.5459 16.4292 17.4336C16.1746 17.3213 15.9051 17.2651 15.6206 17.2651C15.3511 17.2651 15.0928 17.3175 14.8457 17.4224C14.6061 17.5197 14.3665 17.6732 14.127 17.8828L9.66846 21.8696L7.83789 20.1738C7.62826 19.9792 7.41488 19.8332 7.19775 19.7358C6.98063 19.6385 6.74479 19.5898 6.49023 19.5898C6.26562 19.5898 6.05225 19.6385 5.8501 19.7358C5.64795 19.8332 5.44206 19.9754 5.23242 20.1626L1.54883 23.5542C1.61621 24.3778 1.81462 24.9842 2.14404 25.3735C2.47347 25.7554 2.99007 25.9463 3.69385 25.9463H20.6631C21.5091 25.9463 22.1268 25.7254 22.5161 25.2837C22.9129 24.8345 23.1113 24.2168 23.1113 23.4307ZM8.10742 17.8042C8.73633 17.8042 9.27913 17.5796 9.73584 17.1304C10.1925 16.6737 10.4209 16.1271 10.4209 15.4907C10.4209 15.064 10.3161 14.6784 10.1064 14.334C9.89681 13.9821 9.61605 13.7013 9.26416 13.4917C8.91227 13.2821 8.52669 13.1772 8.10742 13.1772C7.68066 13.1772 7.29134 13.2821 6.93945 13.4917C6.59505 13.7013 6.31803 13.9821 6.1084 14.334C5.89876 14.6784 5.79395 15.064 5.79395 15.4907C5.79395 15.91 5.89876 16.2956 6.1084 16.6475C6.31803 16.9993 6.59505 17.2801 6.93945 17.4897C7.29134 17.6994 7.68066 17.8042 8.10742 17.8042ZM1.51514 31.8311H23.2461C23.4333 31.8311 23.5905 31.7674 23.7178 31.6401C23.8451 31.5129 23.9087 31.3556 23.9087 31.1685C23.9087 30.9888 23.8451 30.8353 23.7178 30.708C23.5905 30.5807 23.4333 30.5171 23.2461 30.5171H1.51514C1.33545 30.5171 1.18197 30.5807 1.05469 30.708C0.927409 30.8353 0.86377 30.9888 0.86377 31.1685C0.86377 31.3556 0.927409 31.5129 1.05469 31.6401C1.18197 31.7674 1.33545 31.8311 1.51514 31.8311ZM1.51514 37.0532H15.834C16.0212 37.0532 16.1746 36.9896 16.2944 36.8623C16.4217 36.7425 16.4854 36.589 16.4854 36.4019C16.4854 36.2147 16.4217 36.0575 16.2944 35.9302C16.1746 35.8104 16.0212 35.7505 15.834 35.7505H1.51514C1.33545 35.7505 1.18197 35.8104 1.05469 35.9302C0.927409 36.0575 0.86377 36.2147 0.86377 36.4019C0.86377 36.589 0.927409 36.7425 1.05469 36.8623C1.18197 36.9896 1.33545 37.0532 1.51514 37.0532Z" fill="#9742FB"/>
</svg>
