<svg width="35" height="36" viewBox="0 0 35 36" fill="none" xmlns="http://www.w3.org/2000/svg">
<path d="M17.3077 35.4485C26.8665 35.4485 34.6154 27.6135 34.6154 17.9485C34.6154 8.2835 26.8665 0.448486 17.3077 0.448486C7.74892 0.448486 0 8.2835 0 17.9485C0 27.6135 7.74892 35.4485 17.3077 35.4485Z" fill="#E2E7EC"/>
<path d="M22.7079 9.81372L18.9684 15.4311C18.9143 15.5127 18.8915 15.6115 18.9044 15.7089C18.9172 15.8062 18.9648 15.8955 19.0382 15.9599C19.1115 16.0242 19.2056 16.0592 19.3026 16.0582C19.3997 16.0573 19.4931 16.0204 19.5652 15.9546L23.2449 12.713C23.2663 12.6934 23.293 12.6808 23.3216 12.6769C23.3502 12.6729 23.3793 12.6778 23.405 12.6909C23.4308 12.7039 23.4521 12.7245 23.4662 12.75C23.4802 12.7756 23.4863 12.8048 23.4836 12.8338V22.9612C23.4832 22.9914 23.4739 23.0208 23.4569 23.0455C23.4398 23.0703 23.4158 23.0893 23.388 23.1002C23.3602 23.111 23.3298 23.1132 23.3007 23.1063C23.2717 23.0995 23.2453 23.084 23.225 23.0619L12.0863 9.57211C11.9109 9.3546 11.6892 9.18004 11.4377 9.06149C11.1863 8.94295 10.9116 8.88349 10.6343 8.88756H10.2364C9.73314 8.89181 9.25194 9.09746 8.89791 9.45959C8.54387 9.82173 8.34576 10.3109 8.34683 10.8204V25.0753C8.34648 25.4971 8.48244 25.9074 8.73397 26.2437C8.9855 26.5799 9.33878 26.8237 9.73994 26.9377C10.1411 27.0518 10.5681 27.0299 10.9558 26.8754C11.3435 26.7209 11.6707 26.4423 11.8874 26.082L15.6268 20.4646C15.6809 20.383 15.7037 20.2842 15.6909 20.1869C15.678 20.0895 15.6304 20.0002 15.5571 19.9358C15.4837 19.8715 15.3897 19.8365 15.2926 19.8375C15.1955 19.8384 15.1022 19.8753 15.0301 19.9411L11.3503 23.1626C11.3289 23.1821 11.3022 23.1947 11.2736 23.1987C11.2451 23.2026 11.216 23.1978 11.1902 23.1847C11.1644 23.1717 11.1431 23.151 11.1291 23.1255C11.1151 23.1 11.109 23.0708 11.1116 23.0418V12.9345C11.112 12.9043 11.1213 12.8749 11.1384 12.8502C11.1554 12.8254 11.1794 12.8064 11.2072 12.7955C11.2351 12.7847 11.2655 12.7825 11.2945 12.7894C11.3236 12.7962 11.3499 12.8117 11.3702 12.8338L22.509 26.3236C22.6858 26.5395 22.9078 26.7128 23.1589 26.8312C23.41 26.9496 23.684 27.0101 23.961 27.0082H24.3588C24.8652 27.0082 25.3509 26.8045 25.709 26.442C26.0671 26.0795 26.2683 25.5879 26.2683 25.0753V10.8204C26.265 10.398 26.1261 9.98814 25.8725 9.65266C25.6188 9.31718 25.2643 9.0743 24.8624 8.96065C24.4605 8.847 24.0329 8.86876 23.6443 9.02265C23.2556 9.17653 22.927 9.45419 22.7079 9.81372Z" fill="black"/>
</svg>
