<svg width="83" height="29" viewBox="0 0 83 29" fill="none" xmlns="http://www.w3.org/2000/svg">
<path d="M82.4066 22.4066C82.6311 22.182 82.6311 21.818 82.4066 21.5934L78.7473 17.9341C78.5228 17.7096 78.1587 17.7096 77.9341 17.9341C77.7096 18.1587 77.7096 18.5228 77.9341 18.7473L81.1868 22L77.9341 25.2527C77.7096 25.4772 77.7096 25.8413 77.9341 26.0659C78.1587 26.2904 78.5228 26.2904 78.7473 26.0659L82.4066 22.4066ZM48 22.575L82 22.575L82 21.425L48 21.425L48 22.575Z" fill="#9742FB"/>
<circle cx="20" cy="14" r="14" fill="#D8FEFE"/>
<path d="M2.04243 16.2171H7.79729C8.47009 16.2171 8.9787 16.0425 9.32311 15.6932C9.66752 15.3356 9.83972 14.7908 9.83972 14.0589V8.14572C9.83972 7.41385 9.66752 6.87326 9.32311 6.52396C8.9787 6.17465 8.47009 6 7.79729 6H2.04243C1.36963 6 0.861026 6.17465 0.516616 6.52396C0.172205 6.87326 0 7.41385 0 8.14572V14.0589C0 14.7908 0.172205 15.3356 0.516616 15.6932C0.861026 16.0425 1.36963 16.2171 2.04243 16.2171ZM2.06646 14.8449C1.81016 14.8449 1.62193 14.7825 1.50179 14.6577C1.38165 14.5247 1.32157 14.3209 1.32157 14.0465V8.1582C1.32157 7.88375 1.38165 7.68414 1.50179 7.55939C1.62193 7.43464 1.81016 7.37227 2.06646 7.37227H7.77326C8.02957 7.37227 8.21779 7.43464 8.33793 7.55939C8.45808 7.68414 8.51815 7.88375 8.51815 8.1582V14.0465C8.51815 14.3209 8.45808 14.5247 8.33793 14.6577C8.21779 14.7825 8.02957 14.8449 7.77326 14.8449H2.06646ZM13.9486 16.2171H19.7035C20.3763 16.2171 20.8849 16.0425 21.2293 15.6932C21.5737 15.3356 21.7459 14.7908 21.7459 14.0589V8.14572C21.7459 7.41385 21.5737 6.87326 21.2293 6.52396C20.8849 6.17465 20.3763 6 19.7035 6H13.9486C13.2758 6 12.7672 6.17465 12.4228 6.52396C12.0784 6.87326 11.9062 7.41385 11.9062 8.14572V14.0589C11.9062 14.7908 12.0784 15.3356 12.4228 15.6932C12.7672 16.0425 13.2758 16.2171 13.9486 16.2171ZM13.9847 14.8449C13.7203 14.8449 13.5281 14.7825 13.408 14.6577C13.2878 14.5247 13.2278 14.3209 13.2278 14.0465V8.1582C13.2278 7.88375 13.2878 7.68414 13.408 7.55939C13.5281 7.43464 13.7203 7.37227 13.9847 7.37227H19.6794C19.9438 7.37227 20.132 7.43464 20.2441 7.55939C20.3643 7.68414 20.4243 7.88375 20.4243 8.1582V14.0465C20.4243 14.3209 20.3643 14.5247 20.2441 14.6577C20.132 14.7825 19.9438 14.8449 19.6794 14.8449H13.9847ZM2.04243 28.58H7.79729C8.47009 28.58 8.9787 28.4053 9.32311 28.056C9.66752 27.7067 9.83972 27.162 9.83972 26.4218V20.5086C9.83972 19.7767 9.66752 19.2361 9.32311 18.8868C8.9787 18.5292 8.47009 18.3504 7.79729 18.3504H2.04243C1.36963 18.3504 0.861026 18.5292 0.516616 18.8868C0.172205 19.2361 0 19.7767 0 20.5086V26.4218C0 27.162 0.172205 27.7067 0.516616 28.056C0.861026 28.4053 1.36963 28.58 2.04243 28.58ZM2.06646 27.2077C1.81016 27.2077 1.62193 27.1412 1.50179 27.0081C1.38165 26.8834 1.32157 26.6838 1.32157 26.4093V20.5335C1.32157 20.2508 1.38165 20.047 1.50179 19.9223C1.62193 19.7975 1.81016 19.7351 2.06646 19.7351H7.77326C8.02957 19.7351 8.21779 19.7975 8.33793 19.9223C8.45808 20.047 8.51815 20.2508 8.51815 20.5335V26.4093C8.51815 26.6838 8.45808 26.8834 8.33793 27.0081C8.21779 27.1412 8.02957 27.2077 7.77326 27.2077H2.06646ZM13.9486 28.58H19.7035C20.3763 28.58 20.8849 28.4053 21.2293 28.056C21.5737 27.7067 21.7459 27.162 21.7459 26.4218V20.5086C21.7459 19.7767 21.5737 19.2361 21.2293 18.8868C20.8849 18.5292 20.3763 18.3504 19.7035 18.3504H13.9486C13.2758 18.3504 12.7672 18.5292 12.4228 18.8868C12.0784 19.2361 11.9062 19.7767 11.9062 20.5086V26.4218C11.9062 27.162 12.0784 27.7067 12.4228 28.056C12.7672 28.4053 13.2758 28.58 13.9486 28.58ZM13.9847 27.2077C13.7203 27.2077 13.5281 27.1412 13.408 27.0081C13.2878 26.8834 13.2278 26.6838 13.2278 26.4093V20.5335C13.2278 20.2508 13.2878 20.047 13.408 19.9223C13.5281 19.7975 13.7203 19.7351 13.9847 19.7351H19.6794C19.9438 19.7351 20.132 19.7975 20.2441 19.9223C20.3643 20.047 20.4243 20.2508 20.4243 20.5335V26.4093C20.4243 26.6838 20.3643 26.8834 20.2441 27.0081C20.132 27.1412 19.9438 27.2077 19.6794 27.2077H13.9847Z" fill="#9742FB"/>
</svg>
