<svg width="256" height="48" viewBox="0 0 256 48" fill="none" xmlns="http://www.w3.org/2000/svg">
<line y1="47.5" x2="256" y2="47.5" stroke="black"/>
<path d="M83.4066 22.4066C83.6311 22.182 83.6311 21.818 83.4066 21.5934L79.7473 17.9341C79.5228 17.7096 79.1587 17.7096 78.9341 17.9341C78.7096 18.1587 78.7096 18.5228 78.9341 18.7473L82.1868 22L78.9341 25.2527C78.7096 25.4772 78.7096 25.8413 78.9341 26.0659C79.1587 26.2904 79.5228 26.2904 79.7473 26.0659L83.4066 22.4066ZM49 22.575L83 22.575L83 21.425L49 21.425L49 22.575Z" fill="#9742FB"/>
<circle cx="23" cy="14" r="14" fill="#D8FEFE"/>
<path d="M14.8994 29.9316C15.2288 29.9316 15.5117 29.8027 15.748 29.5449C15.9915 29.2943 16.1992 28.9434 16.3711 28.4922L23.5146 9.81152C23.5934 9.611 23.6507 9.4248 23.6865 9.25293C23.7295 9.08105 23.751 8.9235 23.751 8.78027C23.751 8.47949 23.665 8.24674 23.4932 8.08203C23.3285 7.91016 23.0957 7.82422 22.7949 7.82422C22.6517 7.82422 22.4941 7.8457 22.3223 7.88867C22.1504 7.92448 21.9642 7.98177 21.7637 8.06055L3.01855 15.2256C2.61035 15.3831 2.27734 15.5837 2.01953 15.8271C1.76888 16.0635 1.64355 16.3464 1.64355 16.6758C1.64355 17.084 1.7832 17.3848 2.0625 17.5781C2.3418 17.7715 2.71777 17.9398 3.19043 18.083L11.1504 20.4141L13.4707 28.3203C13.6139 28.8073 13.7822 29.1976 13.9756 29.4912C14.1761 29.7848 14.484 29.9316 14.8994 29.9316ZM11.5264 19.1572L3.78125 16.8369C3.6237 16.7939 3.51986 16.7546 3.46973 16.7188C3.4196 16.6758 3.39453 16.6257 3.39453 16.5684C3.39453 16.5182 3.41602 16.4681 3.45898 16.418C3.50911 16.3678 3.59863 16.3213 3.72754 16.2783L19.7119 10.1982C20.0413 10.0765 20.3636 9.94043 20.6787 9.79004C20.9938 9.63965 21.2946 9.5 21.5811 9.37109C21.3161 9.57878 21.0189 9.81868 20.6895 10.0908C20.36 10.3558 20.0915 10.5921 19.8838 10.7998L11.5264 19.1572ZM15.0068 28.1914C14.9495 28.1914 14.8994 28.1628 14.8564 28.1055C14.8206 28.0482 14.7812 27.9443 14.7383 27.7939L12.4072 20.0488L20.7754 11.6914C20.9831 11.4837 21.2194 11.2152 21.4844 10.8857C21.7565 10.5492 22 10.2448 22.2148 9.97266C22.0788 10.2663 21.9355 10.5706 21.7852 10.8857C21.6348 11.2008 21.4987 11.5231 21.377 11.8525L15.2969 27.8477C15.2539 27.9766 15.2074 28.0661 15.1572 28.1162C15.1143 28.1663 15.0641 28.1914 15.0068 28.1914Z" fill="#9742FB"/>
</svg>
