<svg width="84" height="32" viewBox="0 0 84 32" fill="none" xmlns="http://www.w3.org/2000/svg">
<path d="M83.4066 22.4066C83.6311 22.182 83.6311 21.818 83.4066 21.5934L79.7473 17.9341C79.5228 17.7096 79.1587 17.7096 78.9341 17.9341C78.7096 18.1587 78.7096 18.5228 78.9341 18.7473L82.1868 22L78.9341 25.2527C78.7096 25.4772 78.7096 25.8413 78.9341 26.0659C79.1587 26.2904 79.5228 26.2904 79.7473 26.0659L83.4066 22.4066ZM49 22.575L83 22.575L83 21.425L49 21.425L49 22.575Z" fill="#9742FB"/>
<circle cx="23" cy="14" r="14" fill="#D8FEFE"/>
<path fill-rule="evenodd" clip-rule="evenodd" d="M20.2569 11.034C20.2569 8.78 18.0898 7.15943 15.9278 7.79663L3.88087 11.3471C3.19304 11.5733 2.73854 11.9027 2.42081 12.3136C2.12046 12.7021 1.91336 13.201 1.77807 13.8405C2.60611 13.0599 3.72212 12.5816 4.94985 12.5816H19.3362C19.6515 12.5816 19.9594 12.6131 20.2569 12.6732V11.034ZM0.324785 19.9438H0.324853V26.4664C0.324853 29.0207 2.39553 31.0914 4.94985 31.0914H19.3362C21.8905 31.0914 23.9612 29.0207 23.9612 26.4664V17.2066C23.9612 15.4368 22.9671 13.8991 21.5069 13.1216V11.034C21.5069 7.9452 18.5372 5.72442 15.5744 6.59762L3.51849 10.1508L3.50977 10.1534L3.50112 10.1562C2.60567 10.4487 1.92541 10.9107 1.43192 11.549C0.944643 12.1792 0.672667 12.9384 0.517088 13.7732C0.279705 15.0469 0.296065 16.6343 0.314421 18.4155C0.319526 18.9108 0.324785 19.4211 0.324785 19.9438ZM4.94985 13.8316C3.08589 13.8316 1.57485 15.3426 1.57485 17.2065V26.4664C1.57485 28.3303 3.08589 29.8414 4.94985 29.8414H19.3362C21.2001 29.8414 22.7112 28.3303 22.7112 26.4664V17.2066C22.7112 15.3426 21.2001 13.8316 19.3362 13.8316H4.94985ZM17.6654 23.4094C18.5341 23.4094 19.2384 22.7051 19.2384 21.8363C19.2384 20.9676 18.5341 20.2633 17.6654 20.2633C16.7966 20.2633 16.0923 20.9676 16.0923 21.8363C16.0923 22.7051 16.7966 23.4094 17.6654 23.4094Z" fill="#9742FB"/>
</svg>
