<svg width="35" height="36" viewBox="0 0 35 36" fill="none" xmlns="http://www.w3.org/2000/svg">
<path d="M17.5 35.8701C27.165 35.8701 35 28.0351 35 18.3701C35 8.70513 27.165 0.870117 17.5 0.870117C7.83502 0.870117 0 8.70513 0 18.3701C0 28.0351 7.83502 35.8701 17.5 35.8701Z" fill="#FF0420"/>
<path d="M12.3991 23.0217C11.3575 23.0217 10.5038 22.7765 9.83782 22.286C9.18122 21.7872 8.85292 21.0778 8.85292 20.158C8.85682 19.9203 8.87881 19.6833 8.91872 19.4489C9.03259 18.818 9.19452 18.0606 9.40452 17.1767C10.0005 14.7687 11.5372 13.5647 14.0147 13.5647C14.636 13.5542 15.2529 13.6705 15.8277 13.9063C16.3377 14.1062 16.7764 14.4538 17.0877 14.9045C17.3943 15.3423 17.5476 15.8675 17.5476 16.4802C17.5433 16.7137 17.5213 16.9465 17.4818 17.1767C17.3502 17.9561 17.1925 18.7135 17.0086 19.4489C16.7025 20.6487 16.1728 21.5461 15.4196 22.1411C14.6669 22.7287 13.6601 23.0222 12.3991 23.0217ZM12.5832 21.1317C13.0382 21.1441 13.4821 20.9897 13.8313 20.6977C14.1813 20.4093 14.4308 19.966 14.5796 19.3677C14.7812 18.5445 14.9345 17.8266 15.0395 17.2138C15.0747 17.0276 15.0923 16.8385 15.092 16.6489C15.092 15.8523 14.676 15.454 13.8439 15.454C13.3856 15.4431 12.9386 15.5968 12.5839 15.8873C12.2423 16.1762 11.9971 16.6184 11.8482 17.2138C11.691 17.8004 11.5335 18.5184 11.3757 19.3677C11.3401 19.5494 11.3225 19.7342 11.3232 19.9193C11.3228 20.7267 11.7428 21.1303 12.5832 21.1303V21.1317Z" fill="white"/>
<path d="M18.151 22.8902C18.1093 22.8925 18.0676 22.8855 18.0289 22.8696C17.9903 22.8538 17.9557 22.8294 17.9277 22.7985C17.8841 22.7278 17.87 22.6428 17.8885 22.5619L19.7008 14.0219C19.7171 13.9276 19.769 13.8432 19.8457 13.786C19.9157 13.7275 20.0037 13.6949 20.0949 13.6936H23.59C24.562 13.6936 25.3414 13.8949 25.928 14.2977C26.5234 14.7009 26.8212 15.2842 26.8212 16.0477C26.8201 16.2776 26.7938 16.5067 26.7428 16.7309C26.5239 17.7375 26.0817 18.4818 25.4163 18.9639C24.7587 19.445 23.8562 19.6856 22.7087 19.6856H20.9356L20.3315 22.5619C20.3152 22.6562 20.2636 22.7408 20.1873 22.7985C20.1167 22.8564 20.0286 22.8887 19.9374 22.8902H18.151ZM22.8011 17.8726C23.145 17.88 23.4818 17.774 23.7594 17.5709C24.0453 17.361 24.2421 17.0515 24.311 16.7036C24.3357 16.5736 24.3491 16.4418 24.3509 16.3095C24.3509 16.0554 24.276 15.8629 24.1276 15.732C23.9792 15.6011 23.7244 15.522 23.366 15.522H21.7896L21.2905 17.8733L22.8011 17.8726Z" fill="white"/>
</svg>
