<svg width="36" height="36" viewBox="0 0 36 36" fill="none" xmlns="http://www.w3.org/2000/svg">
<path d="M17.995 35.9202C27.6572 35.9202 35.49 28.0851 35.49 18.4202C35.49 8.75518 27.6572 0.920166 17.995 0.920166C8.33277 0.920166 0.5 8.75518 0.5 18.4202C0.5 28.0851 8.33277 35.9202 17.995 35.9202Z" fill="#8247E5"/>
<path d="M23.7801 14.5332C23.5632 14.4163 23.3212 14.3551 23.0753 14.3551C22.8295 14.3551 22.5875 14.4163 22.3706 14.5332L19.0817 16.4916L16.85 17.7379L13.6198 19.6964C13.4029 19.8133 13.1609 19.8744 12.9151 19.8744C12.6693 19.8744 12.4272 19.8133 12.2103 19.6964L9.68494 18.1533C9.47041 18.0254 9.29258 17.8432 9.16899 17.6246C9.0454 17.4061 8.98033 17.1588 8.98018 16.907V13.9397C8.98205 13.6883 9.04785 13.4417 9.17127 13.2234C9.29469 13.0052 9.47158 12.8226 9.68494 12.6934L12.2103 11.2097C12.4272 11.0928 12.6693 11.0317 12.9151 11.0317C13.1609 11.0317 13.4029 11.0928 13.6198 11.2097L16.1452 12.7527C16.3598 12.8807 16.5376 13.0629 16.6612 13.2814C16.7848 13.5 16.8498 13.7473 16.85 13.999V15.9575L19.0817 14.6519V12.6341C19.0798 12.3827 19.014 12.136 18.8906 11.9178C18.7672 11.6995 18.5903 11.517 18.377 11.3878L13.6786 8.59845C13.4617 8.48156 13.2196 8.42041 12.9738 8.42041C12.728 8.42041 12.486 8.48156 12.2691 8.59845L7.4532 11.4471C7.23745 11.5583 7.05697 11.7286 6.93236 11.9384C6.80775 12.1483 6.74402 12.3893 6.74845 12.6341V18.2127C6.75031 18.464 6.81612 18.7107 6.93954 18.929C7.06295 19.1472 7.23984 19.3297 7.4532 19.459L12.2103 22.2483C12.4272 22.3652 12.6693 22.4263 12.9151 22.4263C13.1609 22.4263 13.4029 22.3652 13.6198 22.2483L16.85 20.3492L19.0817 19.0435L22.3119 17.1444C22.5288 17.0275 22.7708 16.9664 23.0166 16.9664C23.2624 16.9664 23.5045 17.0275 23.7214 17.1444L26.2468 18.6281C26.4613 18.756 26.6391 18.9383 26.7627 19.1568C26.8863 19.3754 26.9514 19.6227 26.9515 19.8744V22.8418C26.9496 23.0931 26.8838 23.3398 26.7604 23.558C26.637 23.7763 26.4601 23.9588 26.2468 24.088L23.7801 25.5717C23.5632 25.6886 23.3212 25.7498 23.0753 25.7498C22.8295 25.7498 22.5875 25.6886 22.3706 25.5717L19.8452 24.088C19.6307 23.9601 19.4528 23.7779 19.3293 23.5594C19.2057 23.3408 19.1406 23.0935 19.1404 22.8418V20.9426L16.9087 22.2483V24.2067C16.9106 24.4581 16.9764 24.7048 17.0998 24.923C17.2232 25.1413 17.4001 25.3238 17.6135 25.453L22.3706 28.2423C22.5875 28.3592 22.8295 28.4204 23.0753 28.4204C23.3212 28.4204 23.5632 28.3592 23.7801 28.2423L28.5372 25.453C28.7518 25.3251 28.9296 25.1429 29.0532 24.9243C29.1768 24.7058 29.2418 24.4585 29.242 24.2067V18.5688C29.2401 18.3174 29.1743 18.0707 29.0509 17.8525C28.9275 17.6342 28.7506 17.4517 28.5372 17.3225L23.7801 14.5332Z" fill="white"/>
</svg>
