<svg width="36" height="36" viewBox="0 0 36 36" fill="none" xmlns="http://www.w3.org/2000/svg">
<path d="M34.819 17.9375C34.819 27.3263 27.2078 34.9375 17.819 34.9375C8.43013 34.9375 0.81897 27.3263 0.81897 17.9375C0.81897 8.54866 8.43013 0.9375 17.819 0.9375C27.2078 0.9375 34.819 8.54866 34.819 17.9375Z" fill="white" stroke="black"/>
<path d="M22.2019 19.0352L25.3543 17.2488C25.3543 17.2488 24.2641 16.5133 23.1871 17.1306C22.11 17.748 22.2019 19.0352 22.2019 19.0352Z" fill="#006E3C"/>
<path d="M16.8546 15.7125V8.61964C16.8546 8.61964 14.556 9.76237 14.556 12.1923C14.556 14.6223 16.8546 15.7125 16.8546 15.7125Z" fill="#006E3C"/>
<path d="M16.8546 8.61964C16.8546 8.61964 19.1527 9.76237 19.1527 12.1923C19.1527 14.6223 16.8546 15.7125 16.8546 15.7125V8.61964Z" fill="#00B43C"/>
<path d="M25.3568 17.2477C25.3568 17.2477 25.4225 18.5612 24.3454 19.1654C23.2684 19.7828 22.2045 19.0341 22.2045 19.0341L25.3568 17.2477Z" fill="#00B43C"/>
<path d="M25.5103 16.9589C25.4578 16.9326 24.1312 16.2234 23.0016 16.8801C22.0953 17.4055 21.9245 18.4431 21.8851 18.8766L21.4648 19.113C21.2546 18.916 20.9788 18.7846 20.6636 18.7846C20.3483 18.7846 20.0725 18.9028 19.8623 19.113L17.9709 18.0097C17.9972 17.9177 18.0103 17.8258 18.0103 17.7338C18.0103 17.2085 17.6557 16.7619 17.1828 16.6305V15.9475C17.7345 15.5929 19.4946 14.2925 19.4946 12.2303C19.4946 9.8398 17.1303 8.35556 17.0252 8.28988L16.8544 8.18481L16.6837 8.28988C16.5786 8.35556 14.2143 9.8398 14.2143 12.2303C14.2143 14.2925 15.9744 15.5797 16.5261 15.9475V16.6305C16.0401 16.7619 15.6986 17.2085 15.6986 17.7338C15.6986 17.8258 15.7117 17.9177 15.738 18.0097L13.8334 19.113C13.6233 18.916 13.3474 18.7846 13.0322 18.7846C12.4017 18.7846 11.8763 19.2969 11.8763 19.9405C11.8763 20.4659 12.231 20.9125 12.7038 21.0438V23.3293C12.231 23.4738 11.8763 23.9072 11.8763 24.4326C11.8763 25.0631 12.3886 25.5885 13.0322 25.5885C13.3737 25.5885 13.6758 25.444 13.886 25.2076L15.738 26.2715C15.7117 26.3634 15.6986 26.4554 15.6986 26.5473C15.6986 27.1778 16.2108 27.6901 16.8544 27.6901C17.4849 27.6901 18.0103 27.1778 18.0103 26.5473C18.0103 26.4554 17.9972 26.3634 17.9709 26.2715L19.8229 25.2076C20.0331 25.444 20.3352 25.5885 20.6767 25.5885C21.3072 25.5885 21.8326 25.0762 21.8326 24.4326C21.8326 23.9072 21.4779 23.4606 21.0051 23.3293V21.0438C21.4779 20.8993 21.8326 20.4659 21.8326 19.9405C21.8326 19.8486 21.8194 19.7566 21.8063 19.6778L22.2266 19.4414C22.463 19.5596 22.949 19.7435 23.4875 19.7435C23.8159 19.7435 24.1706 19.6778 24.5121 19.4808C25.6285 18.8372 25.6942 17.3267 25.6942 17.2741V17.0771L25.5103 16.9589ZM20.9919 20.3346C20.9 20.4002 20.7949 20.4396 20.6767 20.4396C20.611 20.4396 20.5585 20.4265 20.4928 20.4002C20.4403 20.3871 20.4009 20.3608 20.3615 20.3214C20.2564 20.2426 20.1907 20.1244 20.1644 19.993C20.1644 19.9668 20.1644 19.9405 20.1644 19.9142C20.1644 19.888 20.1644 19.8748 20.1644 19.8486C20.1907 19.6647 20.3089 19.5071 20.4797 19.4414C20.5322 19.4151 20.5979 19.402 20.6636 19.402C20.7292 19.402 20.808 19.4151 20.8606 19.4414C21.0445 19.5202 21.1758 19.7041 21.1758 19.9142C21.1758 19.9405 21.1758 19.9668 21.1627 19.993C21.1495 20.1507 21.0839 20.2557 20.9919 20.3346ZM21.1758 24.4326C21.1758 24.7216 20.9394 24.9449 20.6636 24.9449C20.5716 24.9449 20.4665 24.9186 20.4009 24.8661C20.2564 24.7741 20.1513 24.6165 20.1513 24.4326V24.4195C20.1513 24.3669 20.1644 24.3144 20.1776 24.2619C20.2038 24.1699 20.2695 24.0911 20.3483 24.0255C20.414 23.9729 20.4928 23.9335 20.5716 23.9204C20.5979 23.9204 20.6242 23.9072 20.6636 23.9072C20.7818 23.9072 20.9 23.9467 20.9788 24.0123C21.1101 24.1174 21.1758 24.2619 21.1758 24.4326ZM20.3483 23.3293C20.1907 23.3687 20.0462 23.4475 19.928 23.5526L17.984 22.423C17.9972 22.3442 18.0103 22.2785 18.0103 22.1997C18.0103 22.0946 17.9972 21.9764 17.9578 21.8845L19.8755 20.768C20.0068 20.8993 20.1644 20.9913 20.3483 21.0438V23.3293ZM16.8544 27.0596C16.5918 27.0596 16.3816 26.8757 16.3422 26.6261C16.3422 26.5999 16.3422 26.5736 16.3422 26.5473C16.3422 26.3372 16.4735 26.1533 16.6574 26.0745C16.7231 26.0482 16.7888 26.0351 16.8544 26.0351C16.9201 26.0351 16.9858 26.0482 17.0515 26.0745C17.2354 26.1533 17.3667 26.3372 17.3667 26.5473C17.3667 26.5736 17.3667 26.5999 17.3667 26.6261C17.3273 26.8626 17.104 27.0596 16.8544 27.0596ZM15.7248 22.423L13.7809 23.5526C13.6627 23.4475 13.5182 23.3687 13.3606 23.3293V21.0438C13.5445 20.9913 13.7021 20.8993 13.8334 20.768L15.7511 21.8713C15.7248 21.9764 15.6986 22.0815 15.6986 22.1997C15.6986 22.2785 15.7117 22.3573 15.7248 22.423ZM13.5576 24.4326C13.5576 24.6165 13.4656 24.7741 13.308 24.8661C13.2292 24.9186 13.1373 24.9449 13.0453 24.9449C12.7564 24.9449 12.5331 24.7085 12.5331 24.4326C12.5331 24.275 12.6119 24.1174 12.7301 24.0255C12.822 23.9598 12.9271 23.9204 13.0453 23.9204C13.0716 23.9204 13.111 23.9204 13.1373 23.9335C13.2292 23.9467 13.2949 23.9861 13.3606 24.0386C13.4394 24.0911 13.4919 24.1831 13.5313 24.275C13.5445 24.3275 13.5576 24.3801 13.5576 24.4326C13.5576 24.4195 13.5576 24.4195 13.5576 24.4326ZM12.5199 19.9405C12.5199 19.6515 12.7564 19.4283 13.0322 19.4283C13.0979 19.4283 13.1636 19.4414 13.2161 19.4677C13.3868 19.5333 13.5051 19.6909 13.5313 19.8748C13.5313 19.9011 13.5313 19.9274 13.5313 19.9536C13.5313 19.9799 13.5313 20.0062 13.5313 20.0324C13.5182 20.1638 13.4394 20.282 13.3343 20.3608C13.2949 20.3871 13.2555 20.4134 13.203 20.4396C13.1504 20.4659 13.0848 20.479 13.0191 20.479C12.9009 20.479 12.7826 20.4396 12.7038 20.374C12.5987 20.2426 12.5199 20.0981 12.5199 19.9405ZM16.5392 17.3267C16.6312 17.261 16.7362 17.2216 16.8544 17.2216C16.9727 17.2216 17.0909 17.261 17.1697 17.3267C17.2748 17.4055 17.3404 17.5237 17.3536 17.655C17.3536 17.6813 17.3536 17.7076 17.3536 17.7338C17.3536 17.8915 17.2748 18.0491 17.1565 18.141C17.1171 18.1673 17.0777 18.1936 17.0252 18.2198C16.9727 18.2461 16.907 18.2593 16.8413 18.2593C16.7756 18.2593 16.71 18.2461 16.6574 18.2198C16.6049 18.2067 16.5655 18.1804 16.5261 18.141C16.4079 18.0491 16.3291 17.9046 16.3291 17.7338C16.3291 17.7076 16.3291 17.6813 16.3291 17.655C16.3685 17.5237 16.4341 17.4055 16.5392 17.3267ZM17.3667 22.2128C17.3667 22.3705 17.2879 22.5018 17.1697 22.5938C17.1434 22.6069 17.1171 22.6332 17.0909 22.6463C17.0121 22.6857 16.9332 22.712 16.8413 22.712C16.7494 22.712 16.6706 22.6857 16.6049 22.6463C16.5786 22.6332 16.5524 22.62 16.5261 22.5938C16.4079 22.5018 16.3291 22.3573 16.3291 22.1997V22.1866C16.3291 22.134 16.3291 22.0946 16.3422 22.0552C16.3685 21.9501 16.4341 21.8582 16.513 21.7794C16.5655 21.74 16.6312 21.7006 16.71 21.6875C16.7494 21.6743 16.7888 21.6743 16.8413 21.6743C16.8938 21.6743 16.9332 21.6743 16.9727 21.6875C17.0383 21.7006 17.104 21.74 17.1565 21.7794C17.2354 21.8451 17.301 21.937 17.3273 22.0421C17.3404 22.0815 17.3404 22.134 17.3404 22.1866C17.3667 22.1997 17.3667 22.2128 17.3667 22.2128ZM19.5471 19.6647C19.5208 19.7566 19.5077 19.8486 19.5077 19.9405C19.5077 20.0324 19.5208 20.1375 19.5471 20.2295L17.6163 21.3459C17.4849 21.2277 17.3404 21.1489 17.1697 21.0964V18.8372C17.3536 18.7846 17.5112 18.6927 17.6426 18.5613L19.5471 19.6647ZM14.8579 12.2435C14.8579 10.5491 16.3422 9.32754 16.8544 8.95975C17.3667 9.32754 18.8509 10.5491 18.8509 12.2435C18.8509 13.662 17.8002 14.6866 17.1697 15.1726V12.493C17.1697 12.3223 17.0252 12.1778 16.8544 12.1778C16.6706 12.1778 16.5392 12.3223 16.5392 12.493V15.1726C15.8956 14.6866 14.8579 13.662 14.8579 12.2435ZM16.0532 18.5613C16.1846 18.6927 16.3553 18.7846 16.5261 18.8372V21.0964C16.3553 21.1489 16.2108 21.2277 16.0795 21.3328L14.1355 20.2163C14.1618 20.1244 14.1749 20.0324 14.1749 19.9405C14.1749 19.8486 14.1618 19.7566 14.1355 19.6647L16.0532 18.5613ZM14.1749 24.6297C14.1881 24.564 14.1881 24.4983 14.1881 24.4326C14.1881 24.3144 14.1749 24.1962 14.1355 24.078L16.0269 22.9878C16.1583 23.1323 16.3422 23.2374 16.5392 23.303V25.444C16.3553 25.4966 16.1977 25.5885 16.0532 25.7198L14.1749 24.6297ZM17.6557 25.7198C17.5243 25.5885 17.3536 25.4966 17.1697 25.444V23.303C17.3667 23.2505 17.5506 23.1323 17.682 22.9878L19.5734 24.078C19.534 24.1831 19.5208 24.3013 19.5208 24.4326C19.5208 24.4983 19.5208 24.564 19.534 24.6297L17.6557 25.7198ZM24.1706 18.916C23.7502 19.1524 23.2774 19.113 22.9096 19.0211L23.5401 18.6533C23.6977 18.5614 23.7502 18.3775 23.6583 18.2198C23.5664 18.0622 23.3825 18.0097 23.2249 18.1016L22.5944 18.4694C22.6863 18.1148 22.8965 17.6813 23.3168 17.4318C23.921 17.0771 24.6697 17.3004 25.0112 17.4449C24.9587 17.7995 24.7879 18.5614 24.1706 18.916Z" fill="black"/>
</svg>
