<svg width="84" height="34" viewBox="0 0 84 34" fill="none" xmlns="http://www.w3.org/2000/svg">
<path d="M83.4066 22.4066C83.6311 22.182 83.6311 21.818 83.4066 21.5934L79.7473 17.9341C79.5228 17.7096 79.1587 17.7096 78.9341 17.9341C78.7096 18.1587 78.7096 18.5228 78.9341 18.7473L82.1868 22L78.9341 25.2527C78.7096 25.4772 78.7096 25.8413 78.9341 26.0659C79.1587 26.2904 79.5228 26.2904 79.7473 26.0659L83.4066 22.4066ZM49 22.575L83 22.575L83 21.425L49 21.425L49 22.575Z" fill="#9742FB"/>
<circle cx="23" cy="14" r="14" fill="#D8FEFE"/>
<path d="M3.70166 33.2583H18.6064C19.8027 33.2583 20.702 32.9572 21.3042 32.355C21.9064 31.7528 22.2075 30.8657 22.2075 29.6938V14.728C22.2075 13.548 21.9064 12.661 21.3042 12.0669C20.702 11.4647 19.8027 11.1636 18.6064 11.1636H3.70166C2.51351 11.1636 1.61833 11.4647 1.01611 12.0669C0.4139 12.661 0.112793 13.548 0.112793 14.728V29.6938C0.112793 30.8739 0.4139 31.7609 1.01611 32.355C1.61833 32.9572 2.51351 33.2583 3.70166 33.2583ZM3.73828 31.7568C3.04655 31.7568 2.51758 31.5778 2.15137 31.2197C1.79329 30.8617 1.61426 30.3286 1.61426 29.6206V14.8013C1.61426 14.0933 1.79329 13.5602 2.15137 13.2021C2.51758 12.8441 3.04655 12.665 3.73828 12.665H18.582C19.2575 12.665 19.7783 12.8441 20.1445 13.2021C20.5189 13.5602 20.7061 14.0933 20.7061 14.8013V29.6206C20.7061 30.3286 20.5189 30.8617 20.1445 31.2197C19.7783 31.5778 19.2575 31.7568 18.582 31.7568H3.73828ZM15.1519 25.1284C15.3553 25.1284 15.5181 25.0592 15.6401 24.9209C15.7703 24.7744 15.8354 24.5913 15.8354 24.3716V18.2803C15.8354 18.0117 15.7663 17.8164 15.6279 17.6943C15.4896 17.5723 15.3024 17.5112 15.0664 17.5112H8.93848C8.71875 17.5112 8.53971 17.5763 8.40137 17.7065C8.27116 17.8286 8.20605 17.9914 8.20605 18.1948C8.20605 18.4064 8.27523 18.5773 8.41357 18.7075C8.55192 18.8296 8.73096 18.8906 8.95068 18.8906H11.917L13.6748 18.7563L12.0391 20.3188L6.74121 25.6045C6.58659 25.7591 6.50928 25.93 6.50928 26.1172C6.50928 26.3288 6.57031 26.4997 6.69238 26.6299C6.82259 26.7601 6.99349 26.8252 7.20508 26.8252C7.41667 26.8252 7.5957 26.752 7.74219 26.6055L13.04 21.3198L14.5659 19.6841L14.4438 21.6982V24.3838C14.4438 24.6117 14.509 24.7948 14.6392 24.9331C14.7694 25.0633 14.9403 25.1284 15.1519 25.1284Z" fill="#9742FB"/>
</svg>
