<svg width="83" height="30" viewBox="0 0 83 30" fill="none" xmlns="http://www.w3.org/2000/svg">
<path d="M82.4066 22.4066C82.6311 22.182 82.6311 21.818 82.4066 21.5934L78.7473 17.9341C78.5228 17.7096 78.1587 17.7096 77.9341 17.9341C77.7096 18.1587 77.7096 18.5228 77.9341 18.7473L81.1868 22L77.9341 25.2527C77.7096 25.4772 77.7096 25.8413 77.9341 26.0659C78.1587 26.2904 78.5228 26.2904 78.7473 26.0659L82.4066 22.4066ZM48 22.575L82 22.575L82 21.425L48 21.425L48 22.575Z" fill="#9742FB"/>
<circle cx="22" cy="14" r="14" fill="#D8FEFE"/>
<path d="M13.8994 29.9316C14.2288 29.9316 14.5117 29.8027 14.748 29.5449C14.9915 29.2943 15.1992 28.9434 15.3711 28.4922L22.5146 9.81152C22.5934 9.611 22.6507 9.4248 22.6865 9.25293C22.7295 9.08105 22.751 8.9235 22.751 8.78027C22.751 8.47949 22.665 8.24674 22.4932 8.08203C22.3285 7.91016 22.0957 7.82422 21.7949 7.82422C21.6517 7.82422 21.4941 7.8457 21.3223 7.88867C21.1504 7.92448 20.9642 7.98177 20.7637 8.06055L2.01855 15.2256C1.61035 15.3831 1.27734 15.5837 1.01953 15.8271C0.76888 16.0635 0.643555 16.3464 0.643555 16.6758C0.643555 17.084 0.783203 17.3848 1.0625 17.5781C1.3418 17.7715 1.71777 17.9398 2.19043 18.083L10.1504 20.4141L12.4707 28.3203C12.6139 28.8073 12.7822 29.1976 12.9756 29.4912C13.1761 29.7848 13.484 29.9316 13.8994 29.9316ZM10.5264 19.1572L2.78125 16.8369C2.6237 16.7939 2.51986 16.7546 2.46973 16.7188C2.4196 16.6758 2.39453 16.6257 2.39453 16.5684C2.39453 16.5182 2.41602 16.4681 2.45898 16.418C2.50911 16.3678 2.59863 16.3213 2.72754 16.2783L18.7119 10.1982C19.0413 10.0765 19.3636 9.94043 19.6787 9.79004C19.9938 9.63965 20.2946 9.5 20.5811 9.37109C20.3161 9.57878 20.0189 9.81868 19.6895 10.0908C19.36 10.3558 19.0915 10.5921 18.8838 10.7998L10.5264 19.1572ZM14.0068 28.1914C13.9495 28.1914 13.8994 28.1628 13.8564 28.1055C13.8206 28.0482 13.7812 27.9443 13.7383 27.7939L11.4072 20.0488L19.7754 11.6914C19.9831 11.4837 20.2194 11.2152 20.4844 10.8857C20.7565 10.5492 21 10.2448 21.2148 9.97266C21.0788 10.2663 20.9355 10.5706 20.7852 10.8857C20.6348 11.2008 20.4987 11.5231 20.377 11.8525L14.2969 27.8477C14.2539 27.9766 14.2074 28.0661 14.1572 28.1162C14.1143 28.1663 14.0641 28.1914 14.0068 28.1914Z" fill="#9742FB"/>
</svg>
