<svg width="42" height="70" viewBox="0 0 42 70" fill="none" xmlns="http://www.w3.org/2000/svg">
<path d="M21 35C30.665 35 38.5 27.165 38.5 17.5C38.5 7.83502 30.665 0 21 0C11.335 0 3.5 7.83502 3.5 17.5C3.5 27.165 11.335 35 21 35Z" fill="white"/>
<path d="M29.1449 21.0905L26.4363 23.9407C26.3774 24.0026 26.3062 24.052 26.227 24.0857C26.1478 24.1195 26.0624 24.1369 25.9761 24.1368H13.1362C13.075 24.1368 13.015 24.1192 12.9638 24.0863C12.9126 24.0533 12.8723 24.0064 12.8478 23.9513C12.8234 23.8961 12.8159 23.8352 12.8263 23.776C12.8367 23.7167 12.8645 23.6617 12.9063 23.6178L15.6169 20.7676C15.6757 20.7058 15.7467 20.6566 15.8256 20.6228C15.9045 20.5891 15.9896 20.5716 16.0757 20.5715H28.9149C28.9761 20.5715 29.0361 20.5891 29.0873 20.622C29.1385 20.655 29.1788 20.7019 29.2033 20.757C29.2277 20.8122 29.2352 20.8731 29.2248 20.9323C29.2144 20.9916 29.1866 21.0466 29.1449 21.0905ZM26.4363 15.351C26.3774 15.2891 26.3062 15.2397 26.227 15.206C26.1478 15.1723 26.0624 15.1549 25.9761 15.1549H13.1362C13.075 15.1549 13.015 15.1725 12.9638 15.2055C12.9126 15.2384 12.8723 15.2853 12.8478 15.3405C12.8234 15.3956 12.8159 15.4565 12.8263 15.5158C12.8367 15.575 12.8645 15.63 12.9063 15.674L15.6169 18.5242C15.6757 18.5859 15.7467 18.6352 15.8256 18.6689C15.9045 18.7026 15.9896 18.7201 16.0757 18.7202H28.9149C28.9761 18.7202 29.0361 18.7027 29.0873 18.6697C29.1385 18.6368 29.1788 18.5898 29.2033 18.5347C29.2277 18.4796 29.2352 18.4186 29.2248 18.3594C29.2144 18.3002 29.1866 18.2452 29.1449 18.2012L26.4363 15.351ZM13.1362 13.3037H25.9761C26.0624 13.3037 26.1478 13.2864 26.227 13.2526C26.3062 13.2189 26.3774 13.1695 26.4363 13.1076L29.1449 10.2574C29.1866 10.2134 29.2144 10.1585 29.2248 10.0992C29.2352 10.04 29.2277 9.97905 29.2033 9.92391C29.1788 9.86878 29.1385 9.82185 29.0873 9.78889C29.0361 9.75592 28.9761 9.73836 28.9149 9.73836H16.0757C15.9896 9.7385 15.9045 9.75598 15.8256 9.78971C15.7467 9.82344 15.6757 9.8727 15.6169 9.93445L12.907 12.7847C12.8653 12.8286 12.8375 12.8835 12.8271 12.9427C12.8166 13.0018 12.8241 13.0627 12.8484 13.1178C12.8727 13.1729 12.9129 13.2199 12.9641 13.2529C13.0152 13.2859 13.075 13.3035 13.1362 13.3037Z" fill="url(#paint0_linear_147_2246)"/>
<path d="M2.781 57.072C2.301 57.072 1.842 57 1.404 56.856C0.966 56.706 0.621 56.514 0.369 56.28L0.702 55.578C0.942 55.788 1.248 55.962 1.62 56.1C1.992 56.238 2.379 56.307 2.781 56.307C3.147 56.307 3.444 56.265 3.672 56.181C3.9 56.097 4.068 55.983 4.176 55.839C4.284 55.689 4.338 55.521 4.338 55.335C4.338 55.119 4.266 54.945 4.122 54.813C3.984 54.681 3.801 54.576 3.573 54.498C3.351 54.414 3.105 54.342 2.835 54.282C2.565 54.222 2.292 54.153 2.016 54.075C1.746 53.991 1.497 53.886 1.269 53.76C1.047 53.634 0.867 53.466 0.729 53.256C0.591 53.04 0.522 52.764 0.522 52.428C0.522 52.104 0.606 51.807 0.774 51.537C0.948 51.261 1.212 51.042 1.566 50.88C1.926 50.712 2.382 50.628 2.934 50.628C3.3 50.628 3.663 50.676 4.023 50.772C4.383 50.868 4.695 51.006 4.959 51.186L4.662 51.906C4.392 51.726 4.107 51.597 3.807 51.519C3.507 51.435 3.216 51.393 2.934 51.393C2.58 51.393 2.289 51.438 2.061 51.528C1.833 51.618 1.665 51.738 1.557 51.888C1.455 52.038 1.404 52.206 1.404 52.392C1.404 52.614 1.473 52.791 1.611 52.923C1.755 53.055 1.938 53.16 2.16 53.238C2.388 53.316 2.637 53.388 2.907 53.454C3.177 53.514 3.447 53.583 3.717 53.661C3.993 53.739 4.242 53.841 4.464 53.967C4.692 54.093 4.875 54.261 5.013 54.471C5.151 54.681 5.22 54.951 5.22 55.281C5.22 55.599 5.133 55.896 4.959 56.172C4.785 56.442 4.515 56.661 4.149 56.829C3.789 56.991 3.333 57.072 2.781 57.072ZM9.87884 57.072C9.39884 57.072 8.95184 56.991 8.53784 56.829C8.12984 56.667 7.77584 56.442 7.47584 56.154C7.17584 55.86 6.94184 55.518 6.77384 55.128C6.60584 54.738 6.52184 54.312 6.52184 53.85C6.52184 53.388 6.60584 52.962 6.77384 52.572C6.94184 52.182 7.17584 51.843 7.47584 51.555C7.77584 51.261 8.12984 51.033 8.53784 50.871C8.94584 50.709 9.39284 50.628 9.87884 50.628C10.3588 50.628 10.7998 50.709 11.2018 50.871C11.6098 51.027 11.9638 51.252 12.2638 51.546C12.5698 51.834 12.8038 52.173 12.9658 52.563C13.1338 52.953 13.2178 53.382 13.2178 53.85C13.2178 54.318 13.1338 54.747 12.9658 55.137C12.8038 55.527 12.5698 55.869 12.2638 56.163C11.9638 56.451 11.6098 56.676 11.2018 56.838C10.7998 56.994 10.3588 57.072 9.87884 57.072ZM9.87884 56.271C10.2268 56.271 10.5478 56.211 10.8418 56.091C11.1418 55.971 11.3998 55.803 11.6158 55.587C11.8378 55.365 12.0088 55.107 12.1288 54.813C12.2548 54.519 12.3178 54.198 12.3178 53.85C12.3178 53.502 12.2548 53.181 12.1288 52.887C12.0088 52.593 11.8378 52.338 11.6158 52.122C11.3998 51.9 11.1418 51.729 10.8418 51.609C10.5478 51.489 10.2268 51.429 9.87884 51.429C9.52484 51.429 9.19784 51.489 8.89784 51.609C8.60384 51.729 8.34584 51.9 8.12384 52.122C7.90184 52.338 7.72784 52.593 7.60184 52.887C7.48184 53.181 7.42184 53.502 7.42184 53.85C7.42184 54.198 7.48184 54.519 7.60184 54.813C7.72784 55.107 7.90184 55.365 8.12384 55.587C8.34584 55.803 8.60384 55.971 8.89784 56.091C9.19784 56.211 9.52484 56.271 9.87884 56.271ZM15.0934 57V50.7H15.9934V56.217H19.4044V57H15.0934ZM19.9832 57L22.8362 50.7H23.7272L26.5892 57H25.6442L23.0972 51.204H23.4572L20.9102 57H19.9832ZM21.1982 55.425L21.4412 54.705H24.9872L25.2482 55.425H21.1982ZM28.029 57V50.7H28.767L32.934 55.875H32.547V50.7H33.447V57H32.709L28.542 51.825H28.929V57H28.029ZM34.8787 57L37.7317 50.7H38.6227L41.4847 57H40.5397L37.9927 51.204H38.3527L35.8057 57H34.8787ZM36.0937 55.425L36.3367 54.705H39.8827L40.1437 55.425H36.0937Z" fill="white"/>
<defs>
<linearGradient id="paint0_linear_147_2246" x1="14.2068" y1="24.48" x2="27.3861" y2="9.33826" gradientUnits="userSpaceOnUse">
<stop offset="0.08" stop-color="#9945FF"/>
<stop offset="0.3" stop-color="#8752F3"/>
<stop offset="0.5" stop-color="#5497D5"/>
<stop offset="0.6" stop-color="#43B4CA"/>
<stop offset="0.72" stop-color="#28E0B9"/>
<stop offset="0.97" stop-color="#19FB9B"/>
</linearGradient>
</defs>
</svg>
