<svg width="83" height="34" viewBox="0 0 83 34" fill="none" xmlns="http://www.w3.org/2000/svg">
<path d="M82.4066 22.4066C82.6311 22.182 82.6311 21.818 82.4066 21.5934L78.7473 17.9341C78.5228 17.7096 78.1587 17.7096 77.9341 17.9341C77.7096 18.1587 77.7096 18.5228 77.9341 18.7473L81.1868 22L77.9341 25.2527C77.7096 25.4772 77.7096 25.8413 77.9341 26.0659C78.1587 26.2904 78.5228 26.2904 78.7473 26.0659L82.4066 22.4066ZM48 22.575L82 22.575L82 21.425L48 21.425L48 22.575Z" fill="#9742FB"/>
<circle cx="22" cy="14" r="14" fill="#D8FEFE"/>
<path d="M2.73732 28.5942H4.37306V18.5967C4.37306 17.498 4.6701 16.6151 5.26417 15.9478C5.85825 15.2723 6.63136 14.9346 7.58351 14.9346C8.53566 14.9346 9.32098 15.2642 9.93947 15.9233C10.5661 16.5825 10.8794 17.4736 10.8794 18.5967V26.9829C10.8794 28.0653 11.0869 29.0093 11.502 29.8149C11.917 30.6206 12.4948 31.2472 13.2354 31.6948C13.9759 32.1343 14.8304 32.354 15.7988 32.354C16.7673 32.354 17.6136 32.1343 18.3379 31.6948C19.0622 31.2472 19.6278 30.6206 20.0347 29.8149C20.4416 29.0093 20.645 28.0653 20.645 26.9829V16.9976H19.0093V27.0684C19.0093 28.1589 18.7123 29.0418 18.1182 29.7173C17.5241 30.3846 16.751 30.7183 15.7988 30.7183C14.8386 30.7183 14.0492 30.3887 13.4307 29.7295C12.8122 29.0703 12.5029 28.1833 12.5029 27.0684V18.6699C12.5029 17.5876 12.2954 16.6436 11.8804 15.8379C11.4653 15.0322 10.8875 14.4097 10.147 13.9702C9.40643 13.5226 8.55193 13.2988 7.58351 13.2988C6.61509 13.2988 5.76466 13.5226 5.03224 13.9702C4.30796 14.4097 3.74236 15.0322 3.33546 15.8379C2.9367 16.6436 2.73732 17.5876 2.73732 18.6699V28.5942ZM0.820814 27.8862C0.462741 27.8862 0.238946 27.992 0.149428 28.2036C0.0599094 28.4152 0.116876 28.6634 0.320326 28.9482L2.98146 32.7446C3.15236 32.9806 3.3436 33.0946 3.55519 33.0864C3.77492 33.0864 3.96616 32.9725 4.12892 32.7446L6.79005 28.936C6.9935 28.6512 7.0464 28.4071 6.94874 28.2036C6.85923 27.992 6.6395 27.8862 6.28956 27.8862H0.820814ZM17.0928 17.7666H22.5493C22.8993 17.7666 23.119 17.6608 23.2085 17.4492C23.3062 17.2376 23.2533 16.9894 23.0498 16.7046L20.4009 12.9082C20.2381 12.6722 20.0469 12.5542 19.8272 12.5542C19.6074 12.5542 19.4162 12.6722 19.2534 12.9082L16.5923 16.7046C16.3888 16.9894 16.3319 17.2376 16.4214 17.4492C16.5109 17.6608 16.7347 17.7666 17.0928 17.7666Z" fill="#9742FB"/>
</svg>
