<svg width="83" height="34" viewBox="0 0 83 34" fill="none" xmlns="http://www.w3.org/2000/svg">
<path d="M82.2982 22.4066C82.5227 22.182 82.5227 21.818 82.2982 21.5934L78.6389 17.9341C78.4144 17.7096 78.0503 17.7096 77.8257 17.9341C77.6012 18.1587 77.6012 18.5228 77.8257 18.7473L81.0784 22L77.8257 25.2527C77.6012 25.4772 77.6012 25.8413 77.8257 26.0659C78.0503 26.2904 78.4144 26.2904 78.6389 26.0659L82.2982 22.4066ZM47.8916 22.575L81.8916 22.575L81.8916 21.425L47.8916 21.425L47.8916 22.575Z" fill="#C780FF"/>
<circle cx="21.8916" cy="14" r="14" fill="#00D1FF" fill-opacity="0.22"/>
<path d="M2.62892 28.5942H4.26466V18.5967C4.26466 17.498 4.5617 16.6151 5.15578 15.9478C5.74985 15.2723 6.52296 14.9346 7.47511 14.9346C8.42726 14.9346 9.21258 15.2642 9.83107 15.9233C10.4577 16.5825 10.771 17.4736 10.771 18.5967V26.9829C10.771 28.0653 10.9785 29.0093 11.3936 29.8149C11.8086 30.6206 12.3864 31.2472 13.127 31.6948C13.8675 32.1343 14.722 32.354 15.6904 32.354C16.6589 32.354 17.5052 32.1343 18.2295 31.6948C18.9538 31.2472 19.5194 30.6206 19.9263 29.8149C20.3332 29.0093 20.5366 28.0653 20.5366 26.9829V16.9976H18.9009V27.0684C18.9009 28.1589 18.6039 29.0418 18.0098 29.7173C17.4157 30.3846 16.6426 30.7183 15.6904 30.7183C14.7302 30.7183 13.9408 30.3887 13.3223 29.7295C12.7038 29.0703 12.3945 28.1833 12.3945 27.0684V18.6699C12.3945 17.5876 12.187 16.6436 11.772 15.8379C11.3569 15.0322 10.7791 14.4097 10.0386 13.9702C9.29803 13.5226 8.44354 13.2988 7.47511 13.2988C6.50669 13.2988 5.65626 13.5226 4.92384 13.9702C4.19956 14.4097 3.63397 15.0322 3.22706 15.8379C2.8283 16.6436 2.62892 17.5876 2.62892 18.6699V28.5942ZM0.712416 27.8862C0.354343 27.8862 0.130547 27.992 0.0410292 28.2036C-0.048489 28.4152 0.00847711 28.6634 0.211928 28.9482L2.87306 32.7446C3.04396 32.9806 3.2352 33.0946 3.44679 33.0864C3.66652 33.0864 3.85776 32.9725 4.02052 32.7446L6.68165 28.936C6.8851 28.6512 6.938 28.4071 6.84035 28.2036C6.75083 27.992 6.5311 27.8862 6.18117 27.8862H0.712416ZM16.9844 17.7666H22.4409C22.7909 17.7666 23.0106 17.6608 23.1001 17.4492C23.1978 17.2376 23.1449 16.9894 22.9414 16.7046L20.2925 12.9082C20.1297 12.6722 19.9385 12.5542 19.7188 12.5542C19.499 12.5542 19.3078 12.6722 19.145 12.9082L16.4839 16.7046C16.2804 16.9894 16.2235 17.2376 16.313 17.4492C16.4025 17.6608 16.6263 17.7666 16.9844 17.7666Z" fill="#C780FF"/>
</svg>
