<svg width="85" height="35" viewBox="0 0 85 35" fill="none" xmlns="http://www.w3.org/2000/svg">
<path d="M84.4066 22.4066C84.6311 22.182 84.6311 21.818 84.4066 21.5934L80.7473 17.9341C80.5228 17.7096 80.1587 17.7096 79.9341 17.9341C79.7096 18.1587 79.7096 18.5228 79.9341 18.7473L83.1868 22L79.9341 25.2527C79.7096 25.4772 79.7096 25.8413 79.9341 26.0659C80.1587 26.2904 80.5228 26.2904 80.7473 26.0659L84.4066 22.4066ZM50 22.575L84 22.575L84 21.425L50 21.425L50 22.575Z" fill="#C780FF"/>
<circle cx="24" cy="14" r="14" fill="#00D1FF" fill-opacity="0.22"/>
<path d="M13.0059 34.0674C14.7493 34.0674 16.387 33.7331 17.9189 33.0645C19.4593 32.4043 20.8135 31.4902 21.9814 30.3223C23.1494 29.1458 24.0677 27.7917 24.7363 26.2598C25.4049 24.7194 25.7393 23.0775 25.7393 21.334C25.7393 19.5905 25.4049 17.9528 24.7363 16.4209C24.0677 14.8805 23.1494 13.5264 21.9814 12.3584C20.8135 11.182 19.4593 10.2637 17.9189 9.60352C16.3786 8.9349 14.7367 8.60059 12.9932 8.60059C11.2497 8.60059 9.60775 8.9349 8.06738 9.60352C6.53548 10.2637 5.18555 11.182 4.01758 12.3584C2.84961 13.5264 1.93132 14.8805 1.2627 16.4209C0.602539 17.9528 0.272461 19.5905 0.272461 21.334C0.272461 23.0775 0.602539 24.7194 1.2627 26.2598C1.93132 27.7917 2.84961 29.1458 4.01758 30.3223C5.19401 31.4902 6.54818 32.4043 8.08008 33.0645C9.62044 33.7331 11.2624 34.0674 13.0059 34.0674ZM13.0059 32.4297C11.4655 32.4297 10.0267 32.1419 8.68945 31.5664C7.35221 30.9909 6.17578 30.1953 5.16016 29.1797C4.14453 28.1641 3.34896 26.9876 2.77344 25.6504C2.20638 24.3047 1.92285 22.8659 1.92285 21.334C1.92285 19.8021 2.20638 18.3675 2.77344 17.0303C3.34896 15.6846 4.1403 14.5039 5.14746 13.4883C6.16309 12.4642 7.33952 11.6686 8.67676 11.1016C10.0225 10.526 11.4613 10.2383 12.9932 10.2383C14.5335 10.2383 15.9723 10.526 17.3096 11.1016C18.6553 11.6686 19.8359 12.4642 20.8516 13.4883C21.8672 14.5039 22.6628 15.6846 23.2383 17.0303C23.8138 18.3675 24.1016 19.8021 24.1016 21.334C24.1016 22.8659 23.8138 24.3047 23.2383 25.6504C22.6712 26.9876 21.8757 28.1641 20.8516 29.1797C19.8359 30.1953 18.6553 30.9909 17.3096 31.5664C15.9723 32.1419 14.5378 32.4297 13.0059 32.4297ZM12.9932 28.4688C13.137 28.4688 13.2555 28.4264 13.3486 28.3418C13.4502 28.2487 13.501 28.126 13.501 27.9736V27.0215C14.5081 26.9368 15.3418 26.6195 16.002 26.0693C16.6706 25.5107 17.0049 24.7829 17.0049 23.8857C17.0049 23.0732 16.734 22.4173 16.1924 21.918C15.6592 21.4102 14.8509 21.0505 13.7676 20.8389L13.501 20.7881V16.9541C14.0426 17.0218 14.4954 17.208 14.8594 17.5127C15.2318 17.8174 15.473 18.2025 15.583 18.668C15.693 19.015 15.9004 19.1885 16.2051 19.1885C16.3828 19.1885 16.5267 19.1335 16.6367 19.0234C16.7552 18.9049 16.8145 18.7568 16.8145 18.5791C16.8145 18.5199 16.806 18.4606 16.7891 18.4014C16.7806 18.3421 16.7679 18.2829 16.751 18.2236C16.5986 17.555 16.222 17.0007 15.6211 16.5605C15.0286 16.112 14.3219 15.8496 13.501 15.7734V14.8975C13.501 14.7451 13.4502 14.6266 13.3486 14.542C13.2555 14.4489 13.137 14.4023 12.9932 14.4023C12.6631 14.4023 12.498 14.5674 12.498 14.8975V15.7734C11.5586 15.8665 10.7757 16.1882 10.1494 16.7383C9.53158 17.2799 9.22266 17.9655 9.22266 18.7949C9.22266 19.5566 9.48503 20.1787 10.0098 20.6611C10.5345 21.1436 11.3174 21.5033 12.3584 21.7402L12.498 21.7783V25.8535C11.8464 25.7773 11.3174 25.57 10.9111 25.2314C10.5133 24.8929 10.2721 24.474 10.1875 23.9746C10.1367 23.7969 10.0563 23.6657 9.94629 23.5811C9.84473 23.488 9.71777 23.4414 9.56543 23.4414C9.39616 23.4414 9.25228 23.5007 9.13379 23.6191C9.02376 23.7292 8.96875 23.873 8.96875 24.0508C8.96875 24.1185 8.97298 24.182 8.98145 24.2412C8.99837 24.292 9.01107 24.347 9.01953 24.4062C9.1888 25.1426 9.59082 25.7435 10.2256 26.209C10.8604 26.666 11.6178 26.9326 12.498 27.0088V27.9736C12.498 28.126 12.5446 28.2487 12.6377 28.3418C12.7393 28.4264 12.8577 28.4688 12.9932 28.4688ZM12.498 20.5215L12.4219 20.4961C11.7617 20.3184 11.2708 20.0898 10.9492 19.8105C10.6276 19.5312 10.4668 19.1758 10.4668 18.7441C10.4668 18.2871 10.653 17.8936 11.0254 17.5635C11.4062 17.2334 11.8971 17.0303 12.498 16.9541V20.5215ZM13.501 22.0322L13.7803 22.0957C14.4827 22.2734 14.9863 22.5104 15.291 22.8066C15.5957 23.1029 15.748 23.4837 15.748 23.9492C15.748 24.457 15.5534 24.8887 15.1641 25.2441C14.7747 25.5911 14.2204 25.7943 13.501 25.8535V22.0322Z" fill="#C780FF"/>
</svg>
