<svg width="84" height="36" viewBox="0 0 84 36" fill="none" xmlns="http://www.w3.org/2000/svg">
<path d="M83.4066 22.4066C83.6311 22.182 83.6311 21.818 83.4066 21.5934L79.7473 17.9341C79.5228 17.7096 79.1587 17.7096 78.9341 17.9341C78.7096 18.1587 78.7096 18.5228 78.9341 18.7473L82.1868 22L78.9341 25.2527C78.7096 25.4772 78.7096 25.8413 78.9341 26.0659C79.1587 26.2904 79.5228 26.2904 79.7473 26.0659L83.4066 22.4066ZM49 22.575L83 22.575L83 21.425L49 21.425L49 22.575Z" fill="#9742FB"/>
<circle cx="23" cy="14" r="14" fill="#D8FEFE"/>
<path d="M15.081 13.9423H23.3359C23.5341 13.9423 23.7006 13.8749 23.8355 13.7401C23.9703 13.6053 24.0377 13.4387 24.0377 13.2405C24.0377 13.0502 23.9703 12.8916 23.8355 12.7647C23.7006 12.6299 23.5341 12.5625 23.3359 12.5625H15.081C14.8828 12.5625 14.7162 12.6299 14.5814 12.7647C14.4546 12.8916 14.3911 13.0502 14.3911 13.2405C14.3911 13.4387 14.4546 13.6053 14.5814 13.7401C14.7162 13.8749 14.8828 13.9423 15.081 13.9423ZM15.081 20.1869H23.3359C23.5341 20.1869 23.7006 20.1195 23.8355 19.9847C23.9703 19.8499 24.0377 19.6834 24.0377 19.4852C24.0377 19.2869 23.9703 19.1244 23.8355 18.9975C23.7006 18.8627 23.5341 18.7953 23.3359 18.7953H15.081C14.8828 18.7953 14.7162 18.8627 14.5814 18.9975C14.4546 19.1244 14.3911 19.2869 14.3911 19.4852C14.3911 19.6834 14.4546 19.8499 14.5814 19.9847C14.7162 20.1195 14.8828 20.1869 15.081 20.1869ZM1.17622 26.4197H23.3359C23.5341 26.4197 23.7006 26.3563 23.8355 26.2294C23.9703 26.0946 24.0377 25.9281 24.0377 25.7298C24.0377 25.5316 23.9703 25.369 23.8355 25.2422C23.7006 25.1074 23.5341 25.0399 23.3359 25.0399H1.17622C0.985902 25.0399 0.823342 25.1074 0.688537 25.2422C0.553731 25.369 0.486328 25.5316 0.486328 25.7298C0.486328 25.9281 0.553731 26.0946 0.688537 26.2294C0.823342 26.3563 0.985902 26.4197 1.17622 26.4197ZM1.17622 32.6525H23.3359C23.5341 32.6525 23.7006 32.5851 23.8355 32.4503C23.9703 32.3234 24.0377 32.1648 24.0377 31.9745C24.0377 31.7683 23.9703 31.5978 23.8355 31.463C23.7006 31.3362 23.5341 31.2727 23.3359 31.2727H1.17622C0.985902 31.2727 0.823342 31.3362 0.688537 31.463C0.553731 31.5978 0.486328 31.7683 0.486328 31.9745C0.486328 32.1648 0.553731 32.3234 0.688537 32.4503C0.823342 32.5851 0.985902 32.6525 1.17622 32.6525Z" fill="#9742FB"/>
<path d="M5.08594 20.8359C5.76302 20.8359 6.39062 20.7188 6.96875 20.4844C7.54688 20.25 8.01302 19.9036 8.36719 19.4453C8.72135 18.9818 8.89844 18.4141 8.89844 17.7422V17.7266C8.89844 16.9089 8.6276 16.2734 8.08594 15.8203C7.54427 15.3672 6.77083 15.0208 5.76562 14.7812L4.60156 14.5C4.14844 14.3906 3.78906 14.2526 3.52344 14.0859C3.25781 13.9193 3.0651 13.7292 2.94531 13.5156C2.83073 13.3021 2.77344 13.0703 2.77344 12.8203V12.8047C2.77344 12.5182 2.85938 12.2474 3.03125 11.9922C3.20833 11.7318 3.46875 11.5208 3.8125 11.3594C4.15625 11.1927 4.58073 11.1094 5.08594 11.1094C5.51302 11.1094 5.89583 11.1823 6.23438 11.3281C6.57292 11.474 6.84635 11.6849 7.05469 11.9609C7.26823 12.237 7.39323 12.5729 7.42969 12.9688V12.9844L8.78906 12.9766V12.9688C8.76823 12.349 8.58854 11.8099 8.25 11.3516C7.91146 10.888 7.46615 10.5286 6.91406 10.2734C6.36719 10.0182 5.75781 9.89062 5.08594 9.89062C4.38281 9.89062 3.75521 10.0156 3.20312 10.2656C2.65104 10.5104 2.21354 10.8594 1.89062 11.3125C1.57292 11.7604 1.41406 12.2891 1.41406 12.8984V12.9141C1.41406 13.4245 1.52865 13.8646 1.75781 14.2344C1.98698 14.6042 2.32292 14.9167 2.76562 15.1719C3.21354 15.4219 3.76042 15.625 4.40625 15.7812L5.57031 16.0625C6.34635 16.25 6.86719 16.487 7.13281 16.7734C7.40365 17.0547 7.53906 17.4089 7.53906 17.8359V17.8516C7.53906 18.1745 7.45833 18.4714 7.29688 18.7422C7.13542 19.0078 6.875 19.2214 6.51562 19.3828C6.16146 19.5391 5.6901 19.6172 5.10156 19.6172C4.52865 19.6172 4.05729 19.5339 3.6875 19.3672C3.32292 19.1953 3.04427 18.9635 2.85156 18.6719C2.65885 18.3802 2.53646 18.0547 2.48438 17.6953V17.6797L1.125 17.6875V17.6953C1.15104 18.3516 1.34635 18.9141 1.71094 19.3828C2.08073 19.8516 2.5625 20.2109 3.15625 20.4609C3.75 20.7109 4.39323 20.8359 5.08594 20.8359ZM4.58594 22.1328H5.52344V8.59375H4.58594V22.1328Z" fill="#9742FB"/>
</svg>
